<?xml version="1.0" encoding="utf-8"?>
<!-- Generator: Adobe Illustrator 24.0.0, SVG Export Plug-In . SVG Version: 6.00 Build 0)  -->
<svg version="1.1" id="Layer_1" xmlns="http://www.w3.org/2000/svg" xmlns:xlink="http://www.w3.org/1999/xlink" x="0px" y="0px"
	 viewBox="0 0 1023 1027" style="enable-background:new 0 0 1023 1027;" xml:space="preserve">
<style type="text/css">
	.st0{opacity:0.75;fill:#E598AB;}
	.st1{fill:none;stroke:#121A38;stroke-width:2;}
	.st2{fill:none;stroke:#0E3D7E;stroke-width:2;}
	.st3{fill:none;stroke:#0F5789;stroke-width:2;}
	.st4{fill:none;stroke:#0E3171;stroke-width:2;}
	.st5{fill:none;stroke:#0E4883;stroke-width:2;}
	.st6{fill:none;stroke:#105E91;stroke-width:2;}
	.st7{fill:none;stroke:#116D95;stroke-width:2;}
	.st8{fill:none;stroke:#0F5592;stroke-width:2;}
	.st9{fill:none;stroke:#122960;stroke-width:2;}
	.st10{fill:none;stroke:#101B42;stroke-width:2;}
	.st11{fill:none;stroke:#117295;stroke-width:2;}
	.st12{fill:none;stroke:#106793;stroke-width:2;}
	.st13{fill:none;stroke:#0D4F91;stroke-width:2;}
	.st14{fill:none;stroke:#0B3F94;stroke-width:2;}
	.st15{fill:none;stroke:#122F74;stroke-width:2;}
	.st16{fill:none;stroke:#0E4392;stroke-width:2;}
	.st17{fill:none;stroke:#0E7FD9;stroke-width:2;}
	.st18{fill:none;stroke:#1063C3;stroke-width:2;}
	.st19{fill:none;stroke:#1051AF;stroke-width:2;}
	.st20{fill:none;stroke:#0C76E1;stroke-width:2;}
	.st21{fill:none;stroke:#0E55A5;stroke-width:2;}
	.st22{fill:none;stroke:#0C6BD4;stroke-width:2;}
	.st23{fill:none;stroke:#0D91EC;stroke-width:2;}
	.st24{fill:none;stroke:#0E73CC;stroke-width:2;}
	.st25{fill:none;stroke:#1045A3;stroke-width:2;}
	.st26{fill:none;stroke:#1272C2;stroke-width:2;}
	.st27{fill:none;stroke:#0C59C1;stroke-width:2;}
	.st28{fill:none;stroke:#0E7AD4;stroke-width:2;}
	.st29{fill:none;stroke:#0D7DE1;stroke-width:2;}
	.st30{fill:none;stroke:#0F5BA6;stroke-width:2;}
	.st31{fill:none;stroke:#0E4E97;stroke-width:2;}
	.st32{fill:none;stroke:#0E3785;stroke-width:2;}
	.st33{fill:none;stroke:#3ED1F6;stroke-width:2;}
	.st34{fill:none;stroke:#0E85E0;stroke-width:2;}
	.st35{fill:none;stroke:#0E91E6;stroke-width:2;}
	.st36{fill:none;stroke:#3CA5D7;stroke-width:2;}
	.st37{fill:none;stroke:#0C64C6;stroke-width:2;}
	.st38{fill:none;stroke:#0FA0EA;stroke-width:2;}
	.st39{fill:none;stroke:#0D88E7;stroke-width:2;}
	.st40{fill:none;stroke:#409DC5;stroke-width:2;}
	.st41{fill:none;stroke:#418B92;stroke-width:2;}
	.st42{fill:none;stroke:#52F6FC;stroke-width:2;}
	.st43{fill:none;stroke:#3D8994;stroke-width:2;}
	.st44{fill:none;stroke:#3FE5FB;stroke-width:2;}
	.st45{fill:none;stroke:#3CB0E3;stroke-width:2;}
	.st46{fill:none;stroke:#22AAE6;stroke-width:2;}
	.st47{fill:none;stroke:#0F8EE3;stroke-width:2;}
	.st48{fill:none;stroke:#0C70D3;stroke-width:2;}
	.st49{fill:none;stroke:#0C82E6;stroke-width:2;}
	.st50{fill:none;stroke:#11B6F7;stroke-width:2;}
	.st51{fill:none;stroke:#11AFF0;stroke-width:2;}
	.st52{fill:none;stroke:#12BFFA;stroke-width:2;}
	.st53{fill:none;stroke:#1381C6;stroke-width:2;}
	.st54{fill:none;stroke:#10ADF8;stroke-width:2;}
	.st55{fill:none;stroke:#162C5E;stroke-width:2;}
	.st56{fill:none;stroke:#248396;stroke-width:2;}
	.st57{fill:none;stroke:#24CBF9;stroke-width:2;}
	.st58{fill:none;stroke:#12BAF8;stroke-width:2;}
	.st59{fill:none;stroke:#141E41;stroke-width:2;}
	.st60{fill:none;stroke:#146992;stroke-width:2;}
	.st61{fill:none;stroke:#288595;stroke-width:2;}
	.st62{fill:none;stroke:#22B6EB;stroke-width:2;}
	.st63{fill:none;stroke:#2697C8;stroke-width:2;}
	.st64{fill:none;stroke:#2687A0;stroke-width:2;}
	.st65{fill:none;stroke:#25D4FB;stroke-width:2;}
	.st66{fill:none;stroke:#26DFFD;stroke-width:2;}
	.st67{fill:none;stroke:#10A5EA;stroke-width:2;}
	.st68{fill:none;stroke:#0EA0F6;stroke-width:2;}
	.st69{fill:none;stroke:#10539B;stroke-width:2;}
	.st70{fill:none;stroke:#0FABF8;stroke-width:2;}
	.st71{fill:none;stroke:#0E8ADE;stroke-width:2;}
	.st72{fill:none;stroke:#10A0EC;stroke-width:2;}
	.st73{fill:none;stroke:#10A9EE;stroke-width:2;}
	.st74{fill:none;stroke:#11AFF6;stroke-width:2;}
	.st75{fill:none;stroke:#137BC5;stroke-width:2;}
	.st76{fill:none;stroke:#12C3FA;stroke-width:2;}
	.st77{fill:none;stroke:#136B9D;stroke-width:2;}
	.st78{fill:none;stroke:#1169C3;stroke-width:2;}
	.st79{fill:none;stroke:#142E69;stroke-width:2;}
	.st80{fill:none;stroke:#0F9AE8;stroke-width:2;}
	.st81{fill:none;stroke:#105CB5;stroke-width:2;}
	.st82{fill:none;stroke:#104D8D;stroke-width:2;}
	.st83{fill:none;stroke:#0E97F4;stroke-width:2;}
	.st84{fill:none;stroke:#0F83D6;stroke-width:2;}
	.st85{fill:none;stroke:#108ED8;stroke-width:2;}
	.st86{fill:none;stroke:#12204C;stroke-width:2;}
	.st87{fill:none;stroke:#1486C7;stroke-width:2;}
	.st88{fill:none;stroke:#14769F;stroke-width:2;}
	.st89{fill:none;stroke:#1278A9;stroke-width:2;}
	.st90{fill:none;stroke:#1064A5;stroke-width:2;}
	.st91{fill:none;stroke:#116DA7;stroke-width:2;}
	.st92{fill:none;stroke:#105D9D;stroke-width:2;}
	.st93{fill:none;stroke:#11B4F0;stroke-width:2;}
	.st94{fill:none;stroke:#115A9B;stroke-width:2;}
	.st95{fill:none;stroke:#10A7F7;stroke-width:2;}
	.st96{fill:none;stroke:#0F9EF4;stroke-width:2;}
	.st97{fill:none;stroke:#12629A;stroke-width:2;}
	.st98{fill:none;stroke:#0A72E9;stroke-width:2;}
	.st99{fill:none;stroke:#0E439D;stroke-width:2;}
	.st100{fill:none;stroke:#0978F7;stroke-width:2;}
	.st101{fill:none;stroke:#125C93;stroke-width:2;}
	.st102{fill:none;stroke:#10367B;stroke-width:2;}
	.st103{fill:none;stroke:#126BBB;stroke-width:2;}
	.st104{fill:none;stroke:#A5B2FA;stroke-width:2;}
	.st105{fill:none;stroke:#3E8FA8;stroke-width:2;}
	.st106{fill:none;stroke:#7566E4;stroke-width:2;}
	.st107{fill:none;stroke:#0A66E3;stroke-width:2;}
	.st108{fill:none;stroke:#7368FA;stroke-width:2;}
	.st109{fill:none;stroke:#7744A9;stroke-width:2;}
	.st110{fill:none;stroke:#0C45A8;stroke-width:2;}
	.st111{fill:#F90D1E;}
	.st112{fill:#102156;}
	.st113{fill:#143D91;}
	.st114{fill:#0B88F4;}
	.st115{fill:#141E41;}
	.st116{fill:#0C64CD;}
	.st117{fill:#0C4DB4;}
	.st118{fill:#10A6F3;}
	.st119{fill:#12C5FB;}
	.st120{fill:#0C7BD8;}
	.st121{fill:#0F99E4;}
	.st122{fill:#0E95F5;}
	.st123{fill:#13CEFC;}
	.st124{fill:#11B8F8;}
	.st125{fill:#38F0FE;}
	.st126{fill:#6BFCF9;}
	.st127{fill:#0F152E;}
	.st128{fill:#171A2B;}
	.st129{fill:#F70F0F;}
	.st130{fill:#0768F9;}
</style>
<g>
	<circle class="st0" cx="511" cy="514" r="508"/>
	<path vector-effect="non-scaling-stroke" class="st1" d="M764.6,153.5c6.8-2.7,16.9-7,21.4-12.9c4.4-5.8,1.1-13.6-4.4-17.3
		c-2.4-1.6-8.6,1.6-11,2.6c-49.1,21-98.7,41.1-147.7,62.4c-7.4,3.2-16,6.4-24,9.8c-13.5,5.8-22.6,8.9-19.9,24.9
		c1.2,7.1,11.4,2.4,15.1,0.8c24.2-10.1,48.7-19.6,72.7-30.1C699.1,179.8,731.8,166.4,764.6,153.5"/>
	<path vector-effect="non-scaling-stroke" class="st2" d="M756.5,238.7c-1.4,0.9-2.8,1.7-4.4,2.3c-34.6,14.1-69.2,28.4-103.7,42.9"
		/>
	<path vector-effect="non-scaling-stroke" class="st3" d="M648.5,283.9L591,307.4"/>
	<path vector-effect="non-scaling-stroke" class="st4" d="M591,307.4l-12.2-8.3"/>
	<path vector-effect="non-scaling-stroke" class="st5" d="M578.8,299.1l-44.8-30.7"/>
	<path vector-effect="non-scaling-stroke" class="st6" d="M533.9,268.4c-3.3-2.3-6.8-4.7-10.5-7c-6.9-4.4-9.9-3-16.7-0.2
		c-12.9,5.2-25.9,10.3-38.7,15.6"/>
	<path vector-effect="non-scaling-stroke" class="st7" d="M468,276.7c-23.5,10.6-46.9,21.4-70.2,32.4c-7.3,3.5-15.5,6.7-21.1,11.7
		c-5.1,4.5-9.8,10.8-14.1,18.9c-1.5,2.8-2.9,5.2-4.3,7.3"/>
	<path vector-effect="non-scaling-stroke" class="st8" d="M358.3,347L275,381.9"/>
	<path vector-effect="non-scaling-stroke" class="st9" d="M275,381.9l0-55.7c0-0.4-0.2-0.7-0.6-0.8l-0.5-0.2"/>
	<path vector-effect="non-scaling-stroke" class="st10" d="M273.8,325.1c-6.8-2.7-13.7-5.4-20.6-8.2c-3.3-1.3-14.1,4.4-17.7,5.9
		c-1,0.4-1.7,0.2-2.5,1.4"/>
	<path vector-effect="non-scaling-stroke" class="st11" d="M233.1,324.2l-0.6-0.1c-0.4,0-0.7,0.2-0.7,0.6l0.2,305.9"/>
	<path vector-effect="non-scaling-stroke" class="st9" d="M232,630.6c0.5,1,1,1.7,2.1,2.3c6.7,3.1,13.2,6.3,19.6,9.6
		c0.5,0.3,1.1,0.3,1.5,0.1L409.3,579"/>
	<path vector-effect="non-scaling-stroke" class="st12" d="M409.3,579l13.1,9"/>
	<path vector-effect="non-scaling-stroke" class="st6" d="M422.4,588l37.5,26.6"/>
	<path vector-effect="non-scaling-stroke" class="st13" d="M459.9,614.5l16,11.5"/>
	<path vector-effect="non-scaling-stroke" class="st11" d="M475.9,626c-1.1,2-1.5,3.9-1.3,5.7"/>
	<path vector-effect="non-scaling-stroke" class="st4" d="M474.7,631.7l-0.2,1.2c0,0.1-0.1,0.1-0.2,0.1l-0.3-0.1c0,0,0,0,0,0.1
		l-0.2,12.4"/>
	<path vector-effect="non-scaling-stroke" class="st11" d="M473.9,645.4c-4.1,2.4-7.3,5.6-9.4,9.6"/>
	<path vector-effect="non-scaling-stroke" class="st5" d="M464.4,655c-5.1,9-3.8,24.3-3.5,34.2"/>
	<path vector-effect="non-scaling-stroke" class="st6" d="M460.9,689.2c-0.3,8.5,3.3,14.6,10.8,18.3"/>
	<path vector-effect="non-scaling-stroke" class="st11" d="M471.7,707.5l-211,87.2c-0.3,0.1-0.4,0.4-0.3,0.7
		c0.1,0.1,0.2,0.2,0.3,0.3l52.7,21"/>
	<path vector-effect="non-scaling-stroke" class="st1" d="M313.4,816.7c-0.5,0.6-0.5,1.2,0,1.7c0.4,0.4,0.3,1-0.1,1.4
		c-0.1,0.1-0.2,0.1-0.3,0.2c-3.4,1.5-6.4,3.1-9.1,4.9c-2.6,1.7-4.8,2.9-6.6,3.7c-11.5,4.7-23.4,9.6-35.6,14.8
		c-0.3,0.1-0.5,0.5-0.3,0.9c0.1,0.1,0.1,0.2,0.3,0.3c2.3,1.3,4.7,2.5,7.4,3.6c84.3,33.4,168.4,66.8,252.3,100.2
		c0.8,0.3,1.6,0.3,2.4,0l260.7-103.7c0.2-0.1,0.3-0.3,0.2-0.5c0-0.1-0.1-0.2-0.2-0.2c-19.4-7.5-38.6-15.4-57.5-23.9
		c-0.3-0.2-0.9-0.8-1.5-1.8"/>
	<path vector-effect="non-scaling-stroke" class="st14" d="M725.3,818.1l57.6-23.2c0.2-0.1,0.3-0.3,0.2-0.5c0-0.1-0.1-0.2-0.2-0.2
		l-55-22.3"/>
	<path vector-effect="non-scaling-stroke" class="st5" d="M727.9,771.8l-50.3-20.4"/>
	<path vector-effect="non-scaling-stroke" class="st8" d="M677.7,751.4l-100.5-40.8"/>
	<path vector-effect="non-scaling-stroke" class="st10" d="M577.1,710.6c-0.4-0.5,0.2-1,1.8-1.5"/>
	<path vector-effect="non-scaling-stroke" class="st9" d="M578.9,709.1c12.3-3.2,18.8-11.6,19.6-25.4"/>
	<path vector-effect="non-scaling-stroke" class="st10" d="M598.5,683.7c24.9-7.1,50.3-24,69.4-41c28.4-25.4,54.2-57.2,68.3-93.3
		c4-10.4,7.6-20.7,8.5-30.9c1.1-12.7,0.7-26.5-1.2-41.4"/>
	<path vector-effect="non-scaling-stroke" class="st9" d="M743.5,477.1c-3.3-31.7-13.9-63.9-36.5-87.4"/>
	<path vector-effect="non-scaling-stroke" class="st4" d="M707,389.7c-7.9-6.8-16.3-12.6-25.2-17.6"/>
	<path vector-effect="non-scaling-stroke" class="st9" d="M681.8,372.1l-52.4-37.8"/>
	<path vector-effect="non-scaling-stroke" class="st13" d="M629.4,334.4L755,282.2"/>
	<path vector-effect="non-scaling-stroke" class="st2" d="M755,282.2c0.1,0,0.3,0.1,0.4,0.2c0.3,0.1,0.5,0.4,0.5,0.7l0.1,81.8"/>
	<path vector-effect="non-scaling-stroke" class="st4" d="M755.9,364.8l-0.3,109.4"/>
	<path vector-effect="non-scaling-stroke" class="st10" d="M755.6,474.3l0.4,89.4c0,0.4,0.2,0.6,0.5,0.7l10.8,3.9
		c0.4,0.1,0.6,0.5,0.4,0.9c-0.1,0.2-0.2,0.3-0.4,0.4c-10.9,5.5-22.4,11.2-34.4,13.9c-7.4,1.7-7.8,14.5-2.3,18.1
		c5,3.3,8.5-2.5,12.3-0.5c4.9,2.5,10,4.6,15.2,6.3c0.4,0.1,0.7,0.3,0.9,0.7c3.4,5.2,9,3.9,12.1-0.6c0.6-0.9,0.6-1.9,1-3
		c0.2-0.4,0.4-0.6,0.8-0.8c2-0.7,3.9-2,5.6-2.7c24.8-10.1,49.6-20.4,74.2-31c6-2.6,11.1-5.9,8.6-12.9c-0.5-1.5-2.1-2.2-3.6-1.7
		c0,0-0.1,0-0.1,0l-50,20.5c-0.4,0.2-0.7,0.1-0.9-0.2c-0.8-0.9-0.9-2.1-0.3-3.6"/>
	<path vector-effect="non-scaling-stroke" class="st9" d="M806.6,572.1c1.2,0.1,1.7-0.5,1.7-1.6c0-12.9,0-25.8,0-38.7"/>
	<path vector-effect="non-scaling-stroke" class="st4" d="M808.3,531.8l-0.4-57"/>
	<path vector-effect="non-scaling-stroke" class="st5" d="M808,474.8l0.4-54.7"/>
	<path vector-effect="non-scaling-stroke" class="st8" d="M808.3,420.1L808,303.8"/>
	<path vector-effect="non-scaling-stroke" class="st2" d="M808,303.8l0.1-44"/>
	<path vector-effect="non-scaling-stroke" class="st13" d="M808.1,259.8l19.3-8.3c0.4-0.2,0.7-0.5,0.9-0.9c1.1-3.1,1.1-6.1,0.1-9.2
		c-0.1-0.4-0.5-0.6-0.8-0.7l-8.2-0.8c-0.3,0-0.5-0.3-0.5-0.6c0-0.1,0.1-0.2,0.1-0.3c2.2-2.5,3.7-5.7,4.7-9.4"/>
	<path vector-effect="non-scaling-stroke" class="st9" d="M823.6,229.6c1.2-3.9,0.3-6.8-2.8-8.7c-3.9-2.4-10.5-3.6-15.3-1.9
		c-3.3,1.2-6.3,2.3-9,3.4"/>
	<path vector-effect="non-scaling-stroke" class="st10" d="M796.4,222.4c-3-2.9-6.6-5.1-10.7-6.4c-3.1-1-4.8-0.5-7.7,0.8
		c-6.1,2.9-13.4,5.5-18.7,9.5c-0.3,0.2-0.6,0.3-1,0.3c-2.2-0.3-2.6,1.3-2.4,3.1c0.2,3.1,0.4,6.1,0.6,9.1"/>
	<path vector-effect="non-scaling-stroke" class="st15" d="M796.4,222.4l-30,12.2"/>
	<path vector-effect="non-scaling-stroke" class="st16" d="M766.4,234.5l-9.9,4.1"/>
	<path vector-effect="non-scaling-stroke" class="st17" d="M659.4,296.9c-0.1-0.2-0.2-0.4-0.5-0.4c-0.3-0.1-0.5-0.2-0.7-0.5
		c-1.8-3.7-5.7-7.8-6.7-11.5c-0.1-0.4-0.4-0.6-0.8-0.6h-2.3"/>
	<path vector-effect="non-scaling-stroke" class="st18" d="M823.6,229.6l-44.1,18.1"/>
	<path vector-effect="non-scaling-stroke" class="st19" d="M779.5,247.7l-5.7-7c-0.1-0.1-0.1-0.2-0.1-0.4c0-0.1,0-0.2,0.1-0.3
		c0.3-0.4,0.3-0.8-0.2-1l-7.2-4.5"/>
	<path vector-effect="non-scaling-stroke" class="st20" d="M808.1,259.8l-24.8,10.5"/>
	<path vector-effect="non-scaling-stroke" class="st21" d="M783.3,270.3l-4.6,2"/>
	<path vector-effect="non-scaling-stroke" class="st20" d="M778.7,272.4l-23.7,9.8"/>
	<path vector-effect="non-scaling-stroke" class="st18" d="M629.4,334.4l-8.7-6.6"/>
	<path vector-effect="non-scaling-stroke" class="st20" d="M620.6,327.8c14.9-6.5,29.6-12.9,44.2-19.1c30-12.9,60.4-24.8,90.5-37.5
		c3.3-1.4,6.5-3.3,9.9-5.7c0.6-0.5,0.8-1.3,0.3-1.9c-0.1-0.2-0.3-0.3-0.4-0.4l-1.3-0.7c-0.3-0.2-0.6-0.2-0.9-0.1
		c-9,3.3-17.7,6.4-26.7,10.3c-23.9,10.2-61.5,26.1-112.9,47.6c-4.7,2-7.7,3.1-8.9,3.5"/>
	<path vector-effect="non-scaling-stroke" class="st18" d="M614.3,323.7l-2.7-1.9"/>
	<path vector-effect="non-scaling-stroke" class="st22" d="M611.6,321.9l-3.2-2.3"/>
	<path vector-effect="non-scaling-stroke" class="st23" d="M608.4,319.5c0-0.2,0-0.4,0.1-0.7c0.1-0.4,0.3-0.6,0.7-0.8l50.3-21.1"/>
	<path vector-effect="non-scaling-stroke" class="st20" d="M659.4,296.9l120.1-49.2"/>
	<path vector-effect="non-scaling-stroke" class="st24" d="M608.4,319.5L591,307.4"/>
	<path vector-effect="non-scaling-stroke" class="st25" d="M681.8,372.1c-3.3-0.4-6.5-1-9.5-1.6c-21.9-4.4-43.2-3.1-64.4,4.3"/>
	<path vector-effect="non-scaling-stroke" class="st26" d="M607.9,374.9c-2.4,0.8-4.3,0.9-5.8,0.3"/>
	<path vector-effect="non-scaling-stroke" class="st27" d="M776.9,374.9l-0.3-0.9c-0.1-0.3-0.2-0.3-0.3,0c-0.5,1.3-1.4,1.6-2.6,0.9
		c-1.7-1-6.8-3.2-6.7-3.3c0.1-0.3,0-0.6-0.4-0.7c-3.5-1-4.6-3.5-7.5-4.7c-1.1-0.5-2.2-0.9-3.3-1.3"/>
	<path vector-effect="non-scaling-stroke" class="st25" d="M611.6,321.9l-2.2,0.1c-0.4,0-0.7,0.3-0.7,0.7
		c-0.6,8.1,0.3,16.2-0.6,24.1c-0.6,5.6-1,11.3-1.2,16.9c-0.1,2.6-1,5.3-0.7,8.3c0,0.3-0.2,0.6-0.5,0.7c-0.2,0-0.5-0.1-0.6-0.3
		c0-0.1-0.1-0.1-0.1-0.3c0-0.1-0.1-0.1-0.2-0.1c-0.6,0.1-0.8,0.4-0.6,1c0.1,0.3,0,0.5-0.3,0.7c-0.9,0.3-1.4,0.8-1.7,1.5"/>
	<path vector-effect="non-scaling-stroke" class="st28" d="M602.1,375.2l-29-20.2"/>
	<path vector-effect="non-scaling-stroke" class="st29" d="M808,303.8c-5.8-5.8-11.9-10.5-18.2-14.3c-0.3-0.2-0.5-0.4-0.7-0.7
		c-1.4-2.3-3.2-2.8-5.3-1.4"/>
	<path vector-effect="non-scaling-stroke" class="st16" d="M783.8,287.4l-0.5-17.1"/>
	<path vector-effect="non-scaling-stroke" class="st30" d="M783.8,287.4l0,126.5"/>
	<path vector-effect="non-scaling-stroke" class="st31" d="M783.8,413.9l0,52.7"/>
	<path vector-effect="non-scaling-stroke" class="st32" d="M783.8,466.6l0,57.2"/>
	<path vector-effect="non-scaling-stroke" class="st15" d="M783.9,523.8l0.3,56c0,0.4,0.3,0.7,0.7,0.7c0.1,0,0.2,0,0.2,0l21.6-8.3"
		/>
	<path vector-effect="non-scaling-stroke" class="st32" d="M755.6,474.3c0.3-0.1,0.5-0.2,0.8-0.2c0.1,0,0.2,0,0.3,0.1
		c0.1,0.1,0.1,0.2,0.1,0.3c0,0.2,0.2,0.4,0.4,0.4c6.5,0.1,12.6,1.7,18.2,4.9c0.2,0.1,0.3,0.1,0.4-0.1l0.2-0.2
		c0.1-0.1,0.2-0.1,0.3,0.1c0.1,0.2,0.1,0.4,0.2,0.6c0,0.1,0.2,0.2,0.3,0.2c0.1,0,0.2-0.1,0.2-0.2l-0.1-105.2"/>
	<path vector-effect="non-scaling-stroke" class="st16" d="M776.9,374.9c0.3-32.9,0.5-65.7,0.3-98.6c0-1.6,0.7-2.5,1.4-3.9"/>
	<path vector-effect="non-scaling-stroke" class="st19" d="M620.6,327.8l-6.3-4.1"/>
	<path vector-effect="non-scaling-stroke" class="st28" d="M607.9,374.9c0.3-0.1,0.7,0.4,1.1,1.5"/>
	<path vector-effect="non-scaling-stroke" class="st33" d="M609,376.4c-31.3,5.5-60.8,24.9-82.6,48.1"/>
	<path vector-effect="non-scaling-stroke" class="st34" d="M526.3,424.5l-28.9-20.9"/>
	<path vector-effect="non-scaling-stroke" class="st35" d="M497.4,403.6l-5.8-4.3"/>
	<path vector-effect="non-scaling-stroke" class="st25" d="M707,389.7c-2.7,2.7-2.1,7.1-1.8,10.8c0.4,5.2-1.5,9.9-3.4,14.7"/>
	<path vector-effect="non-scaling-stroke" class="st36" d="M701.8,415.2c-20.2-31.2-56.4-45.9-92.9-38.8"/>
	<path vector-effect="non-scaling-stroke" class="st37" d="M578.8,299.1c1.1,4.3,0.9,8.6-0.5,12.7c-0.1,0.4-0.1,0.7,0.1,1
		c0.6,1.2,0.6,2.3-0.1,3.3c-0.2,0.3-0.3,0.7-0.1,1.1c0.9,2.2,1,4.3,0.2,6.4c-0.1,0.4-0.1,0.8,0.2,1.1c1.1,1.5,1.4,3.1,0.8,4.9
		c-0.1,0.4-0.2,0.8-0.1,1.3c0.2,1.6-0.3,3.1-1.4,4.4c-0.1,0.1-0.2,0.1-0.3,0c0-0.1-0.1-0.2-0.1-0.3c-0.1-0.9-0.3-1-0.6-0.3l-0.4,0.7
		c-0.1,0.1-0.2,0.2-0.3,0.1c-0.1,0-0.2-0.1-0.2-0.2c0-0.1,0-0.2,0-0.4c0-0.1-0.1-0.3-0.3-0.3c-0.1,0-0.2,0-0.2,0.1
		c-1.7,2.9-2.2,6.1-1.3,9.5c0.1,0.4,0.1,0.7,0,1.1c-0.5,1.6-0.5,3.1,0.1,4.7c0.5,1.3,0.1,2.7-1,3.3c-0.2,0.1-0.3,0.6-0.1,1.6"/>
	<path vector-effect="non-scaling-stroke" class="st35" d="M573.1,355l-7.3-5.2"/>
	<path vector-effect="non-scaling-stroke" class="st38" d="M565.8,349.8L516,314.2"/>
	<path vector-effect="non-scaling-stroke" class="st39" d="M808.3,420.1l-0.3,4.2c0,0.3-0.3,0.6-0.7,0.6c-0.3,0-0.5-0.2-0.6-0.4
		l-0.3-0.9c-0.1-0.4-0.4-0.6-0.9-0.6c-3.3,0-5.5-1.8-8.3-2.4c-2.5-0.6-5-1.3-7.4-2.2c-0.3-0.1-0.5-0.3-0.7-0.6
		c-0.5-0.9-1.2-1.5-2.2-1.9c-0.3-0.1-0.6-0.2-1-0.1c-1.1,0.1-1.9-0.5-2.4-1.8"/>
	<path vector-effect="non-scaling-stroke" class="st25" d="M808.3,531.8c-0.7-0.1-1.4-0.4-2-0.9c-0.2-0.2-0.4-0.2-0.6,0l-0.4,0.4
		c-0.2,0.2-0.4,0.2-0.6,0c-0.4-0.4-0.9-0.5-1.5-0.2c-0.4,0.2-0.8,0.2-1.1,0.1l-9.6-2.3c-0.2,0-0.3,0-0.2,0.2l0.1,0.3
		c0.1,0.3-0.1,0.5-0.4,0.3l-6.9-2.6c-0.4-0.1-0.6-0.5-0.6-0.9c0-1-0.2-1.8-0.6-2.5"/>
	<path vector-effect="non-scaling-stroke" class="st37" d="M808,474.8c-1.1-0.4-2.2-0.6-3.2-0.7c-2.9-0.3-4.5-1.1-6.9-2.3
		c-3.3-1.7-6.8-1.2-10.3-3c-0.4-0.2-0.7-0.3-1.1-0.2c-0.8,0-1.1-0.3-1.1-1.2c0-0.2-0.1-0.2-0.2-0.2h-0.4c-0.1,0-0.2-0.1-0.3-0.2
		c-0.1-0.7-0.3-0.8-0.7-0.4"/>
	<path vector-effect="non-scaling-stroke" class="st40" d="M701.8,415.2l7.5,12.8"/>
	<path vector-effect="non-scaling-stroke" class="st41" d="M709.3,427.9c6.5,15.4,10.1,31.3,10.9,47.8"/>
	<path vector-effect="non-scaling-stroke" class="st42" d="M720.2,475.7c-2-4.9-5.3-5.8-10.1-2.8"/>
	<path vector-effect="non-scaling-stroke" class="st43" d="M710,472.9c-3.7-21.1-9.6-37.8-24.1-53.8"/>
	<path vector-effect="non-scaling-stroke" class="st33" d="M685.9,419.2c0.9-0.9,1.1-1.7,0.5-2.2c-21.9-21.2-42.4-30.2-73.8-27.1"/>
	<path vector-effect="non-scaling-stroke" class="st44" d="M612.7,389.9c-38.2,4.9-71.8,30.4-93,61.4"/>
	<path vector-effect="non-scaling-stroke" class="st42" d="M519.6,451.3c-1,0-2-0.4-2.8-1.2c-0.1-0.1-0.1,0-0.2,0l-0.2,0.2
		c0,0-0.1,0.1-0.1,0c0,0,0,0,0-0.1c0-0.1-0.1-0.3-0.2-0.4c-0.1-0.2-0.1-0.3,0-0.5c1.6-3,2.2-6.2,2-9.6c0-0.4-0.2-0.8-0.6-1
		c-0.8-0.5-1.6-0.8-2.5-0.8"/>
	<path vector-effect="non-scaling-stroke" class="st45" d="M514.8,438.1c3.3-4.9,7.1-9.4,11.5-13.6"/>
	<path vector-effect="non-scaling-stroke" class="st46" d="M514.8,438.1c-28.8,37.2-46,87-39.3,134"/>
	<path vector-effect="non-scaling-stroke" class="st47" d="M475.5,572.1c0.9,6.7,2.3,13.2,4.2,19.4"/>
	<path vector-effect="non-scaling-stroke" class="st20" d="M479.7,591.5c-0.6,0.3-1,0.7-1,1.2c-0.1,0.3-0.4,0.5-0.7,0.5
		c-0.1,0-0.3-0.1-0.4-0.2c-2.3-3.3-3.5-4.9-6.8-7.5c-3.5-2.8-2.5-6.8-5.3-10c-3.7-4.4-6.8-9.2-9.3-14.3c-0.2-0.3-0.1-0.6,0-0.9
		l0.2-0.3c0.2-0.3,0.1-0.8-0.2-1.1l-2.7-2.3c-0.2-0.2-0.4-0.2-0.6,0l-0.3,0.3c-0.3,0.2-0.5,0.2-0.7-0.1l-7.2-10.7
		c-0.2-0.3-0.2-0.7,0-1c0.3-0.5,0.4-1,0-1.4c-3.4-4.4-5.8-8.8-7-13.3c-0.1-0.3,0-0.5,0.1-0.7c0.1-0.1,0.1-0.2,0.2-0.3
		c0.1-0.1,0.1-0.3,0.1-0.4l-1.3-6.5c-0.1-0.3,0.1-0.7,0.3-0.9c0.7-0.5,0.8-1,0.2-1.4c-6.5-4.5-13-9.1-19.5-13.6"/>
	<path vector-effect="non-scaling-stroke" class="st48" d="M497.4,403.6c-2.9,3.9-6.5,7.3-10.8,10c-0.3,0.2-0.3,0.4,0,0.6
		c0.2,0.1,0.3,0.3,0.3,0.5c0,0.2-0.1,0.5-0.4,0.8c-13.9,13.2-22.6,21.9-26.2,26.1c-7.2,8.5-14.4,16.9-21.7,25.3
		c-0.2,0.3-0.3,0.5-0.4,0.9c0,0.9-0.4,1.6-1.1,2.3c-0.4,0.4-0.3,0.7,0.3,0.8l0.5,0.1c0.1,0,0.3,0.2,0.2,0.3c0,0,0,0.1,0,0.1
		c-2.4,4.7-5,9.2-7.8,13.7c0,0.1-0.1,0.1-0.1,0.2c-0.6,0.7-1,0.8-1.1,0.1c0-0.1-0.1-0.2-0.2-0.2c-0.1,0-0.1,0-0.1,0.1l-10.5,19.3
		c-0.1,0.1,0,0.1,0.1,0.1h0.5c0.3,0,0.3,0.1,0.1,0.3c-0.6,0.5-0.9,1.1-1,1.7"/>
	<path vector-effect="non-scaling-stroke" class="st49" d="M418.1,506.7l-16.4-11.4"/>
	<path vector-effect="non-scaling-stroke" class="st50" d="M565.8,349.8c-0.5,0.3-1,0.4-1.5,0.3c-0.4-0.1-0.7,0-1,0.2
		c-4.7,3.5-9.4,6.9-14.2,10.3c-2.6,1.8-4.7,1.9-7.7,2.5c-0.6,0.1-0.7,0.3-0.1,0.7l1.6,1c0.4,0.2,0.4,0.5,0,0.8
		c-7.4,6.3-14.9,13.2-23,18.6c-2.5,1.6-4.9,3.3-7.4,5c-0.2,0.1-0.2,0.2,0,0.4l1.5,0.8c0.4,0.2,0.4,0.5,0,0.7l-11.3,5.7
		c-0.3,0.2-0.7,0.3-1.1,0.3c-1.4,0-2.7-0.4-3.8-1.2c-0.3-0.2-0.7-0.3-1.1-0.2c-2.3,0.4-4,1.7-5,3.7"/>
	<path vector-effect="non-scaling-stroke" class="st38" d="M491.6,399.3l-11-7.7"/>
	<path vector-effect="non-scaling-stroke" class="st51" d="M480.6,391.6L430.6,356"/>
	<path vector-effect="non-scaling-stroke" class="st52" d="M430.6,356l-27.5-19.8c-0.7-0.5-1.7-0.4-2.2,0.4c0,0-0.1,0.1-0.1,0.1
		c-3,5.1-8.3,7.7-13.1,11.1c-5.9,4.1-10.7,9.7-15.8,14.8c-4,4-6.7,9.1-10.5,13.5c-4.2,4.9-5,11-9.5,16.3c-1.6,1.9-3.3,5.2-6.5,6.5
		c-0.3,0.1-0.5,0.3-0.6,0.6l-1.6,4.7c-0.1,0.4-0.4,0.5-0.7,0.2l-0.4-0.4c-0.5-0.5-0.8-0.4-1,0.3l-0.7,2.2c-0.1,0.3-0.3,0.6-0.7,0.7
		c-0.2,0.1-0.3,0.1-0.4,0.3c0,0.1-0.1,0.1-0.1,0.2c0,0.3,0,0.4,0.2,0.3c0.3-0.2,0.4-0.1,0.4,0.2c0,1.3-0.6,2.1-1.8,2.3
		c-0.3,0.1-0.5,0.3-0.6,0.6c-0.2,1-0.7,1.7-1.5,2.1"/>
	<path vector-effect="non-scaling-stroke" class="st7" d="M336.1,413l4.6-14.2"/>
	<path vector-effect="non-scaling-stroke" class="st53" d="M340.6,398.8l3.6-11.1"/>
	<path vector-effect="non-scaling-stroke" class="st54" d="M344.2,387.7l14.1-40.7"/>
	<path vector-effect="non-scaling-stroke" class="st15" d="M743.5,477.1c-0.2,0.5-0.3,1-0.3,1.6c0,0.4-0.2,0.7-0.5,0.9
		c-5.7,3.2-7.8,5.6-14.6,6.5"/>
	<path vector-effect="non-scaling-stroke" class="st55" d="M728.1,486.2c-0.4-10.1-1.9-19.5-4.4-28.1c-3-10.4-7.8-20.4-14.4-30.1"/>
	<path vector-effect="non-scaling-stroke" class="st35" d="M533.9,268.4l-4.5,23.7c-0.1,0.4-0.2,0.7-0.4,1c-1.7,2.5-0.4,4.6-1.9,6.8
		c-0.3,0.5-0.6,0.5-0.7-0.1l-0.5-1.8c-0.1-0.4-0.3-0.4-0.5-0.1l-2.2,3.3c-0.2,0.3-0.3,0.3-0.3-0.1v-0.5c0-0.1-0.1-0.2-0.2-0.2
		c-0.1,0-0.1,0-0.2,0.1l-3,5.5c-0.2,0.4-0.2,0.7-0.2,1.1c0.2,0.9-0.1,1.7-0.8,2.4c-0.1,0.1-0.1,0.1-0.2,0l-0.4-0.4
		c-0.1-0.1-0.2-0.1-0.3,0c0,0-0.1,0.1-0.1,0.1c-0.1,1.8-0.7,3.5-1.8,5.1"/>
	<path vector-effect="non-scaling-stroke" class="st50" d="M516,314.2L469,280c-0.3-0.2-0.4-0.6-0.4-0.9c0.3-1.3,0.1-2.1-0.7-2.3"/>
	<path vector-effect="non-scaling-stroke" class="st56" d="M710,472.9c6.6,62.4-28.8,127.6-84.6,157.1"/>
	<path vector-effect="non-scaling-stroke" class="st12" d="M625.4,630c-11.3,6-23.4,9.8-36.3,11.2"/>
	<path vector-effect="non-scaling-stroke" class="st5" d="M589.1,641.2c-14.7,1-31.6-1.6-44.7-10.1c-24.1-15.6-36.5-40.4-39.4-68.6"
		/>
	<path vector-effect="non-scaling-stroke" class="st6" d="M685.9,419.2l-16.7-12.4"/>
	<path vector-effect="non-scaling-stroke" class="st57" d="M669.2,406.8c-8.6-5.3-16.9-8.7-24.6-10.1c-9.5-1.7-20.3-1.2-32.5,1.4"/>
	<path vector-effect="non-scaling-stroke" class="st58" d="M612.1,398.2c-0.7-0.3-1.1-1-1.3-2c0,0.2,0-0.1,0.1-0.7
		c0-0.1,0-0.3,0.1-0.4c0.1-0.4-0.1-0.7-0.5-0.9c-0.5-0.3-0.5-0.6-0.1-0.9c1.2-0.9,2-2,2.3-3.4"/>
	<path vector-effect="non-scaling-stroke" class="st59" d="M728.1,486.2c1.5,65-32,125.1-86,161.3c-13.5,9.1-27.9,15.5-43.2,19.3"/>
	<path vector-effect="non-scaling-stroke" class="st55" d="M598.9,666.8l-0.4-16.1"/>
	<path vector-effect="non-scaling-stroke" class="st60" d="M598.5,650.7l17.3-6.4"/>
	<path vector-effect="non-scaling-stroke" class="st61" d="M615.8,644.3c13-5.5,24.8-12.7,35.3-21.4c43.7-36.3,71-89.3,69.1-147.1"
		/>
	<path vector-effect="non-scaling-stroke" class="st62" d="M495.1,502.7c-2.9,10.6-5,21.3-6.2,32.1"/>
	<path vector-effect="non-scaling-stroke" class="st63" d="M488.9,534.9c-1.1,9.1-1.3,17.9-0.5,26.4"/>
	<path vector-effect="non-scaling-stroke" class="st64" d="M488.5,561.2l1.4,10.5"/>
	<path vector-effect="non-scaling-stroke" class="st65" d="M489.9,571.7l-14.3,0.4"/>
	<path vector-effect="non-scaling-stroke" class="st65" d="M615.8,644.3c2.9-2.5,5.8-4.7,8.8-6.8c1.6-1.1,2.4-2.1,2.5-3.1
		c0.2-1.3-0.4-2.7-1.7-4.3"/>
	<path vector-effect="non-scaling-stroke" class="st66" d="M612.1,398.2c-51.1,10.4-92,58.4-107.3,106"/>
	<path vector-effect="non-scaling-stroke" class="st67" d="M504.8,504.1c-2.8,0-5.4-0.6-7.8-1.9c-0.3-0.2-0.6-0.2-0.9,0.1
		c-0.3,0.2-0.6,0.4-0.9,0.4"/>
	<path vector-effect="non-scaling-stroke" class="st66" d="M495.1,502.7c5.6-18.4,13.7-35.5,24.5-51.4"/>
	<path vector-effect="non-scaling-stroke" class="st68" d="M479.7,591.5l0.8,2.6c0.1,0.3,0.3,0.6,0.7,0.7c5.3,1.4,10.9,2.3,16.7,2.5
		"/>
	<path vector-effect="non-scaling-stroke" class="st69" d="M497.9,597.3c5.4,11.2,13.2,20.7,23.5,28.6"/>
	<path vector-effect="non-scaling-stroke" class="st49" d="M521.4,625.9c-2,1.8-4.6,3.1-7.8,4c-0.5,0.1-0.6,0.4-0.4,0.8l0.4,0.9
		c0.2,0.4,0.1,0.7-0.3,1l-1.6,0.8c-0.3,0.2-0.4,0.4-0.2,0.7c0.5,0.9,0.6,1.8,0.2,2.7c-0.5,1.4,0.2,2.9,1.5,3.4c0.1,0,0.1,0,0.2,0.1
		c1.9,0.5,3.4,2.3,5.2,3.2c5.4,2.6,10.9,4.8,16.5,6.7c1.7,0.6,3.8-0.1,5.5,1.5c0.2,0.2,0.3,0.4,0.1,0.7c-0.1,0.4-0.3,0.5-0.5,0.4
		c-0.4-0.2-0.8-0.2-1.1,0.2c-0.5,0.6-0.4,1,0.2,1.4"/>
	<path vector-effect="non-scaling-stroke" class="st22" d="M539.6,654.2c-9.3,1.7-17.8,1.9-25.6,0.5"/>
	<path vector-effect="non-scaling-stroke" class="st70" d="M513.9,654.7c-3.8-2.4-7.2-4.8-10.2-7.2c-9.5-7.6-18.7-14.1-27.8-21.5"/>
	<path vector-effect="non-scaling-stroke" class="st71" d="M480.6,391.6c-1.8,2.4-4.8,5.1-9.1,8.1c-3.4,2.4-7.3,7.6-11.7,10.4
		c-1.8,1.2-3.2,2.2-4.2,3.1c-11,10.3-20.9,21.6-29.6,33.7c-9.7,13.5-17.6,30.4-25.7,45.7c-0.2,0.4-0.2,0.7,0.1,1l1.3,1.7"/>
	<path vector-effect="non-scaling-stroke" class="st23" d="M401.7,495.4l-9.5-6.2"/>
	<path vector-effect="non-scaling-stroke" class="st72" d="M392.2,489.2l-23.5-16.6"/>
	<path vector-effect="non-scaling-stroke" class="st73" d="M430.6,356c-3.8,4.4-7.8,8.5-12.1,12.3c-21.6,19.3-38.3,38.4-51.5,64.2
		c-4.9,9.5-8.4,16.8-10.6,21.8c-1.7,3.8,1.3,9.9,4.5,12.2c2.7,1.9,5.3,3.9,7.8,6"/>
	<path vector-effect="non-scaling-stroke" class="st74" d="M368.7,472.6c-0.6,2.3-1,3.9,0,6.2c4.3,10.9,9.5,21,14.5,31.5
		c3.2,6.8,9,11.7,10.8,20c1.2,5.2,4.5,9.4,7.5,13.6c2,2.8,2.8,5.8,5,8.5c4.5,5.5,7.1,11.7,10.9,17.5c2.6,3.9,4.7,8,6.3,12.2
		c0.4,1.1,0.2,2-0.5,2.9c-0.3,0.3-0.3,0.6-0.1,0.9c0.3,0.5,0.3,1.1,0.1,1.7c-0.1,0.2-0.2,0.3-0.4,0.3c-0.1,0-0.2,0-0.3,0"/>
	<path vector-effect="non-scaling-stroke" class="st75" d="M409.3,579l-7.9-5.7"/>
	<path vector-effect="non-scaling-stroke" class="st76" d="M401.5,573.3c1.5-0.9,1.8-2.1,0.9-3.6c-2.8-4.7-5.1-9.6-8.2-14.1
		c-1.9-2.8-3.5-5.2-4.6-7.2c-2.4-4.2-6.7-8.5-6.7-12c0-0.4-0.1-0.7-0.3-1c-5.2-7.4-10.2-14.8-14.9-22.5c-1.5-2.4-4.3-5.3-5.2-7.3
		c-1.3-2.8-2.7-4.9-4.4-6.2c-0.3-0.3-0.5-0.2-0.5,0.2v1.1c0,0.3-0.1,0.4-0.4,0.2l-1.9-1.2c-0.3-0.2-0.4-0.4-0.4-0.7l-0.2-2.8
		c0-0.4-0.2-0.7-0.6-0.9l-1.5-0.9c-0.3-0.2-0.4-0.1-0.4,0.3c0,0.1,0,0.2,0,0.3c0,0.2-0.1,0.3-0.3,0.2l-1.6-0.9
		c-0.3-0.2-0.5-0.1-0.6,0.3l-0.3,1.4"/>
	<path vector-effect="non-scaling-stroke" class="st12" d="M349.3,495.9l0-30.6c0-0.4-0.2-0.7-0.5-0.9l-5-3.2"/>
	<path vector-effect="non-scaling-stroke" class="st77" d="M343.7,461.2l-13.9-9.9"/>
	<path vector-effect="non-scaling-stroke" class="st12" d="M329.9,451.3l-4.4-3.2c-0.5-0.3-0.7-1-0.5-1.5l11-33.5"/>
	<path vector-effect="non-scaling-stroke" class="st1" d="M329.9,451.3l-0.5,1.4c-0.1,0.3-0.3,0.6-0.7,0.8
		c-14,6.9-28.1,13.2-42.3,18.8"/>
	<path vector-effect="non-scaling-stroke" class="st10" d="M286.5,472.3l-11.6,5.3"/>
	<path vector-effect="non-scaling-stroke" class="st78" d="M275,381.9c0.1,13.1,0.2,26.3,0.3,39.6c0,0.7,0.4,1.4,0.6,2.1
		c0,0.1,0.1,0.1,0.1,0.1c0.1,0,0.1-0.1,0.1-0.1l0.4-8.1c0-0.4,0.3-0.7,0.6-0.8c4.9-1.7,10-3.3,14.5-5.2
		c17.1-7.1,34.7-14.4,52.6-21.8"/>
	<path vector-effect="non-scaling-stroke" class="st9" d="M340.6,398.8c-14.6,6.5-29.4,13-44.4,19.3c-5.6,2.4-11.3,4.6-17.1,6.7
		c-0.4,0.1-0.7,0.2-1.1,0.2h-2.6c-0.5,0-0.7,0.2-0.7,0.7l0.1,51.9"/>
	<path vector-effect="non-scaling-stroke" class="st15" d="M274.9,477.6l0.1,12.3"/>
	<path vector-effect="non-scaling-stroke" class="st9" d="M275,489.8v55.6"/>
	<path vector-effect="non-scaling-stroke" class="st79" d="M275,545.5l0,10.6"/>
	<path vector-effect="non-scaling-stroke" class="st9" d="M275,556l0.1,34.6"/>
	<path vector-effect="non-scaling-stroke" class="st75" d="M275.1,590.6l0.1,20c0,0.4-0.2,0.7-0.6,0.8l-17.5,7.2"/>
	<path vector-effect="non-scaling-stroke" class="st63" d="M257,597.5l-0.2-13.7"/>
	<path vector-effect="non-scaling-stroke" class="st63" d="M256.7,385.2l0-12"/>
	<path vector-effect="non-scaling-stroke" class="st15" d="M598.5,683.7l0.4-16.9"/>
	<path vector-effect="non-scaling-stroke" class="st56" d="M669.2,406.8c-19.9-9-41.9-8.9-62.1-2.2c-64.2,21.4-107.7,91-102.2,157.9
		"/>
	<path vector-effect="non-scaling-stroke" class="st62" d="M504.9,562.5l-3.7,0.9c-0.3,0.1-0.4,0-0.4-0.3c0-0.1,0-0.2,0-0.4
		c0-0.4-0.1-0.5-0.5-0.3l-1.5,0.7"/>
	<path vector-effect="non-scaling-stroke" class="st64" d="M498.8,563l-0.2-2.1"/>
	<path vector-effect="non-scaling-stroke" class="st63" d="M498.6,560.9l-0.2-24.6"/>
	<path vector-effect="non-scaling-stroke" class="st62" d="M498.4,536.3c1-10.8,3.1-21.6,6.4-32.2"/>
	<path vector-effect="non-scaling-stroke" class="st75" d="M598.5,650.7l-5,1.3"/>
	<path vector-effect="non-scaling-stroke" class="st80" d="M589.1,641.2c0.1,1.5-0.3,3.1,0.3,4.5c1,2.5,2.4,4.6,4.1,6.2"/>
	<path vector-effect="non-scaling-stroke" class="st81" d="M593.5,651.9l-2.8,0.9"/>
	<path vector-effect="non-scaling-stroke" class="st48" d="M590.7,652.8c-9.9,1.8-19.2,2.6-28,2.3"/>
	<path vector-effect="non-scaling-stroke" class="st37" d="M562.6,655c-8.5-1-14.7-1.8-23.1-0.8"/>
	<path vector-effect="non-scaling-stroke" class="st15" d="M578.9,709.1c-0.3,0.1-0.5,0.1-0.5,0"/>
	<path vector-effect="non-scaling-stroke" class="st19" d="M578.4,709.1c7.7-5.1,11.8-12.4,12.5-21.7c0.7-9.8,0.7-21.4-0.2-34.7"/>
	<path vector-effect="non-scaling-stroke" class="st81" d="M498.4,536.3c-3.7,0.5-6-3.1-9.5-1.4"/>
	<path vector-effect="non-scaling-stroke" class="st79" d="M498.6,560.9c-3.1,1.1-6.4,1.2-10.1,0.3"/>
	<path vector-effect="non-scaling-stroke" class="st82" d="M498.8,563c4.3,33.5,24.2,64.2,56.7,75.2c0.2,0.1,0.5,0.1,0.7,0.1
		c0.9-0.1,1.6,0.2,1.9,1c0.1,0.3,0,0.5-0.4,0.4c-13.1-2.1-25.2-6.7-36.3-13.9"/>
	<path vector-effect="non-scaling-stroke" class="st77" d="M497.9,597.3c-3.9-8.6-6.6-17.1-8-25.6"/>
	<path vector-effect="non-scaling-stroke" class="st83" d="M392.2,489.2c1.3,7.1,3.6,13.8,7.1,20.1c1.8,3.4,3.4,6.5,4.7,9.4
		c1.9,4.3,4.2,8.5,6.9,12.4c1.4,2.1,0.9,4.4,2.5,6.8c2.8,3.9,5.4,8,7.7,12.2c0.1,0.1,0.1,0.3,0,0.4c0,0.1-0.1,0.2-0.1,0.3
		c-0.1,0.2,0,0.5,0.2,0.7c1.5,1.1,2.8,2.5,3.6,4.2c0,0,0,0,0,0c0,0,0,0,0,0c0-0.1,0.1-0.2,0.1-0.3c0.1-0.3,0.2-0.4,0.4-0.1l4.8,8.4
		c0,0.1,0.1,0.1,0.2,0.2c0.3,0.1,0.4-0.1,0.3-0.6c0-0.1,0-0.1,0.1-0.1c0,0,0.1,0,0.1,0c2.2,3.3,4.2,6.6,6.1,10.1
		c0.7,1.4,0.7,3.2,2.5,4.3c0,0,0.1,0.1,0,0.1c0,0,0,0,0,0c-0.1,0-0.2,0.1-0.3,0.1c-0.1,0-0.1,0.1-0.1,0.2c7.1,9.8,14,19.8,20.6,30
		c1.1,1.7,1.7,3.5,1.7,5.5c0,0.4-0.2,0.6-0.6,0.7l-1,0.2"/>
	<path vector-effect="non-scaling-stroke" class="st27" d="M562.6,655c-8.9,4.7-18.8,7.4-29.6,8.1"/>
	<path vector-effect="non-scaling-stroke" class="st84" d="M533,663.2l-10.4,0.8"/>
	<path vector-effect="non-scaling-stroke" class="st85" d="M522.6,664c-9.5-0.4-21-0.1-29.4-3.3c-8-3.1-14.5-8.2-19.4-15.3"/>
	<path vector-effect="non-scaling-stroke" class="st85" d="M513.9,654.7c-14.3-1.3-37.5-4.3-39.3-23"/>
	<path vector-effect="non-scaling-stroke" class="st1" d="M343.7,461.2L287,484.8"/>
	<path vector-effect="non-scaling-stroke" class="st86" d="M287,484.8l-0.6-12.5"/>
	<path vector-effect="non-scaling-stroke" class="st11" d="M349.3,495.9l0.6,16.8"/>
	<path vector-effect="non-scaling-stroke" class="st1" d="M349.9,512.7c0.2,0.8-0.4,1.2-1.7,1.2c-0.4,0-0.7,0.1-1,0.3
		c-2,1.4-3.9,2.7-6.1,3.7c-21.8,9.4-43.8,18.6-66.1,27.6"/>
	<path vector-effect="non-scaling-stroke" class="st10" d="M275,489.8l12.1-5"/>
	<path vector-effect="non-scaling-stroke" class="st87" d="M401.5,573.3l-12.2-8.6"/>
	<path vector-effect="non-scaling-stroke" class="st76" d="M389.2,564.7l-18.3-13.6"/>
	<path vector-effect="non-scaling-stroke" class="st11" d="M370.9,551.1c-8.9-5.1-15-13.3-18.2-24.6"/>
	<path vector-effect="non-scaling-stroke" class="st88" d="M352.7,526.6l-2.8-13.9"/>
	<path vector-effect="non-scaling-stroke" class="st12" d="M370.9,551.1c-5.4,1.5-11.5,4.6-15.5,6.2c-26.5,11-53.2,22.1-80.3,33.3"
		/>
	<path vector-effect="non-scaling-stroke" class="st1" d="M352.7,526.6c-3.3,0.5-6.8,1.5-10.3,3.1c-18.8,8.6-38,15.7-55.8,23.7
		c-4.1,1.8-8,2.7-11.6,2.7"/>
	<path vector-effect="non-scaling-stroke" class="st15" d="M273.8,325.1c-0.5,1-0.8,1.6-1.9,2.1c-5.2,2.2-10.5,4.3-15.8,6.4"/>
	<path vector-effect="non-scaling-stroke" class="st89" d="M256.1,333.7l-23-9.5"/>
	<path vector-effect="non-scaling-stroke" class="st87" d="M256.1,333.7c0.7,3.4,1,6.9,0.8,10.5c-0.4,9.6-0.3,19.2-0.3,29.1"/>
	<path vector-effect="non-scaling-stroke" class="st66" d="M256.7,373.2l-10.6-4.9c-0.4-0.2-0.9,0-1.1,0.4c0,0.1,0,0.1-0.1,0.2
		c-0.8,3.7-1,7.3-0.6,11c0.5,5,8.9,6.2,12.3,5.3"/>
	<path vector-effect="non-scaling-stroke" class="st87" d="M256.7,385.2l0,198.6"/>
	<path vector-effect="non-scaling-stroke" class="st66" d="M256.8,583.8l-11.2-3.9c-0.4-0.1-0.7,0.1-0.9,0.4c0,0,0,0.1,0,0.1
		c-0.7,4.2-0.8,8.4-0.1,12.6c0.1,0.4,0.3,0.7,0.6,0.9c3.4,2.3,7.4,3.5,11.8,3.6"/>
	<path vector-effect="non-scaling-stroke" class="st87" d="M257,597.5l0.1,21.2"/>
	<path vector-effect="non-scaling-stroke" class="st76" d="M257.1,618.7c0.3-0.6,0.3-0.3-0.1,1.2"/>
	<path vector-effect="non-scaling-stroke" class="st87" d="M257,619.8c-8.1,3.4-17.5,6.3-25,10.8"/>
	<path vector-effect="non-scaling-stroke" class="st75" d="M389.2,564.7L257,619.8"/>
	<path vector-effect="non-scaling-stroke" class="st16" d="M578.4,709.1l-13,1.2"/>
	<path vector-effect="non-scaling-stroke" class="st20" d="M565.4,710.4c0.2-0.5,0.9-0.7,2.3-0.6c0.1,0,0.2-0.1,0.2-0.2
		c0-0.1,0-0.2-0.1-0.2c-0.5-0.3-0.6-0.7-0.5-1.3c0.7-3.2,0.2-7.6,0.6-11c0.4-3.5-0.2-7.1,0.2-10.7c0.6-6,0.9-11,1-16.4
		c0-0.9-0.7-1.6-1.6-1.7l-17.2-1.1"/>
	<path vector-effect="non-scaling-stroke" class="st47" d="M550.4,667.2c-6.8-0.1-12.6-1.5-17.4-4"/>
	<path vector-effect="non-scaling-stroke" class="st30" d="M577.1,710.6l-17.6,1.9"/>
	<path vector-effect="non-scaling-stroke" class="st90" d="M559.5,712.5c-3.7-0.4-6.7-2.3-10.4-0.4"/>
	<path vector-effect="non-scaling-stroke" class="st16" d="M549.1,712.1c-6.8,2.7-14.1,4.2-22,4.4"/>
	<path vector-effect="non-scaling-stroke" class="st91" d="M527.1,716.4c-7.1-0.5-14-2.3-20.8-5.2"/>
	<path vector-effect="non-scaling-stroke" class="st92" d="M506.3,711.2c-0.4,0.2-0.7,0-0.7-0.6"/>
	<path vector-effect="non-scaling-stroke" class="st68" d="M550.4,667.2c1.1,6.7,1.2,12.9,0.1,18.5c-0.5,2.7-0.8,5-0.7,6.8
		c0.1,5.9-0.4,11.9-0.8,17.8"/>
	<path vector-effect="non-scaling-stroke" class="st91" d="M549,710.4l-28.1,0.2"/>
	<path vector-effect="non-scaling-stroke" class="st76" d="M522.6,664l1.3,0.6c0.2,0.1,0.3,0.3,0.3,0.5l-0.2,21.5
		c0,0.3,0.1,0.6,0.4,0.9c0.2,0.2,0.3,0.5,0.3,0.9c-0.9,7.4-2.2,14.8-3.8,22.2"/>
	<path vector-effect="non-scaling-stroke" class="st89" d="M520.9,710.6l-15.3,0"/>
	<path vector-effect="non-scaling-stroke" class="st93" d="M505.6,710.6l-7.6-0.8"/>
	<path vector-effect="non-scaling-stroke" class="st89" d="M498,709.8l-8.6,0.1"/>
	<path vector-effect="non-scaling-stroke" class="st58" d="M489.4,709.8c-1.1-4-1.7-7.3-1.9-9.8c-1-12.1-1.6-24.4-1.9-36.7
		c0-1.4-1.2-2.6-2.6-2.7c-4.3-0.3-8.9-1.2-13.8-2.8"/>
	<path vector-effect="non-scaling-stroke" class="st67" d="M469.2,657.9l-4.8-2.9"/>
	<path vector-effect="non-scaling-stroke" class="st21" d="M565.4,710.4l-16.4,0.1"/>
	<path vector-effect="non-scaling-stroke" class="st90" d="M583.5,751.7l-3.6,5.4"/>
	<path vector-effect="non-scaling-stroke" class="st34" d="M580,757.1c-2.2-1.5-3.4-2.7-3.8-3.7c-1.8-4.6-4.2-8.8-7.2-12.6
		c-1.9-2.4-3.4-5.1-5.3-7.5c-1.3-1.7-2-3.7-3.7-5.8c-1.8-2.1-3.7-5.6-5.6-10.5c-0.1-0.3-0.4-0.6-0.8-0.7c-0.6-0.2-0.9-0.7-0.8-1.4
		c0-0.4-0.1-0.7-0.5-0.9l-3.1-2"/>
	<path vector-effect="non-scaling-stroke" class="st39" d="M677.7,751.4c-1,1.8-1.2,3.2-0.5,4.3c0.2,0.3,0.1,0.6-0.2,0.8l-3.9,2.8
		c-0.1,0.1-0.1,0.2-0.1,0.3c0,0.1,0.1,0.2,0.1,0.4c0.1,0.3-0.1,0.5-0.4,0.5c-0.8,0-1.7,0.2-2.4,0.8c-5.8,5.2-11.7,10.4-17.5,15.6
		c-0.3,0.2-0.5,0.3-0.9,0.3l-1.6-0.2c-0.4,0-0.7,0.1-0.9,0.4l-21.7,23.6c-0.2,0.2-0.2,0.4,0,0.6l0.3,0.3c0.3,0.3,0.4,0.7,0,1.1
		l-7.4,9.1c-0.3,0.3-0.6,0.4-1,0.3c-4.2-1.4-5.6,4.4-4.5,7.3"/>
	<path vector-effect="non-scaling-stroke" class="st94" d="M615,819.5l-91.8,35.7c-0.4,0.1-0.8,0.1-1.2,0l-54.6-21.3"/>
	<path vector-effect="non-scaling-stroke" class="st95" d="M467.4,833.8c1.7-0.1,2.7-0.2,3.1-0.5c5.6-4.2,12.3-7.1,17.5-10.4
		c2.6-1.6,5.1-3.3,7.7-4.9c0.5-0.3,0.8-0.2,1,0.3l0.4,1c0.2,0.4,0.4,0.5,0.7,0.2l4.4-3.5c0.3-0.2,0.2-0.3-0.1-0.3l-2.7,0.1
		c-0.5,0-0.6-0.1-0.1-0.4c4.1-3.1,8.6-7.6,11.5-10.1c4.3-3.7,9.1-6.9,12-12c0.2-0.4,0.1-0.5-0.3-0.5h-1c-0.4,0-0.5-0.2-0.4-0.6
		l0.9-2c0.2-0.4,0.1-0.7-0.2-1l-1.3-1.3"/>
	<path vector-effect="non-scaling-stroke" class="st30" d="M520.4,787.8c16,0.6,62-2,63.5-25.3c0.2-3.6,0.1-7.2-0.4-10.8"/>
	<path vector-effect="non-scaling-stroke" class="st96" d="M583.5,751.7c2.9-15.5-7.3-21.4-18-29.1c-2.9-2.1-4.9-4.6-7.2-7.2
		c-0.3-0.3-0.2-0.7,0-1c0.8-0.8,1.2-1.5,1.2-1.9"/>
	<path vector-effect="non-scaling-stroke" class="st73" d="M506.3,711.2c-0.4,0.2-0.8,0.3-1.3,0.3c-0.4,0-0.7,0.2-0.8,0.6
		c-1.4,4.1-4.5,8.7-5.1,12.7c-0.4,2.7-2.2,5.9-2.7,7.9c-1.4,5.3-2.9,10.5-4.4,15.8c-1.6,5.4-3,12.5-5.1,18.6"/>
	<path vector-effect="non-scaling-stroke" class="st92" d="M486.8,767.1c-8.5-4.1-15.8-8.9-18.7-18"/>
	<path vector-effect="non-scaling-stroke" class="st73" d="M468.1,749.1l-0.2-3.7"/>
	<path vector-effect="non-scaling-stroke" class="st47" d="M527.1,716.4c-0.9,7.2-0.4,15.3-0.8,21.5c-0.5,8.9-0.2,18.1-1.2,27
		c-0.3,3-0.7,6-1,9"/>
	<path vector-effect="non-scaling-stroke" class="st91" d="M524.1,773.8c-12.8,0.1-25.2-2.2-37.3-6.8"/>
	<path vector-effect="non-scaling-stroke" class="st16" d="M580,757.1c-12.3,13.8-38.3,17.4-55.9,16.7"/>
	<path vector-effect="non-scaling-stroke" class="st90" d="M489.4,709.8l-11.8-1"/>
	<path vector-effect="non-scaling-stroke" class="st58" d="M477.6,708.8l-5.8-1.3"/>
	<path vector-effect="non-scaling-stroke" class="st35" d="M469.2,657.9c0.1,11.1,0.3,22.2,0.5,33.3c0,1.8-0.5,3.2-0.9,4.8
		c-0.3,1.1-1.3,1.7-2.4,1.5c-0.5-0.1-1-0.5-1.2-0.9l-4.2-7.3"/>
	<path vector-effect="non-scaling-stroke" class="st92" d="M498,709.8c-0.6,1.7-1.7,2.6-3.2,2.7"/>
	<path vector-effect="non-scaling-stroke" class="st69" d="M625.1,827.2l-101.2,39c-0.9,0.4-1.9,0.4-2.8,0l-17.8-7"/>
	<path vector-effect="non-scaling-stroke" class="st97" d="M503.3,859.1l-66.1-25.8"/>
	<path vector-effect="non-scaling-stroke" class="st91" d="M468.1,749.1c-0.3,10.2-2.2,19.4,7.5,26.3c13.2,9.3,30.6,12,44.8,12.4"/>
	<path vector-effect="non-scaling-stroke" class="st77" d="M467.4,833.8l-84.8-33.2"/>
	<path vector-effect="non-scaling-stroke" class="st98" d="M727.9,771.8c-2.3,3.3-6.1,5.7-11.4,7.3c-0.1,0-0.2,0-0.2-0.1
		c0-0.1,0-0.2,0-0.3c0-0.2-0.1-0.3-0.3-0.3c-0.1,0-0.1,0-0.2,0.1c-1.1,0.7-1.7,2-1.9,3.8"/>
	<path vector-effect="non-scaling-stroke" class="st82" d="M713.9,782.1c-0.7-0.3-1.2-0.5-1.6-0.3c-32.4,12.6-64.8,25.2-97.4,37.6"
		/>
	<path vector-effect="non-scaling-stroke" class="st89" d="M477.6,708.8l17.3,3.6"/>
	<path vector-effect="non-scaling-stroke" class="st93" d="M494.8,712.5c-6.8,13.4-25.7,15.9-26.9,33"/>
	<path vector-effect="non-scaling-stroke" class="st76" d="M467.9,745.4c-5-1-6.7,0.4-10.9,2.6c-0.4,0.2-0.4,0.5-0.1,0.8
		c2.7,2.5-3.3,5.7-4.9,6.4c-3.4,1.4-2.7,5.8-6.5,5.3c-0.4-0.1-0.8,0-1.1,0.3c-5.8,4.8-11.1,8.9-17.2,14.4c-4.6,4.2-9.6,8-14.9,11.3
		c-0.3,0.2-0.6,0.5-0.7,0.8c-1.9,4-5.5,3.4-7.4,7.2c-0.2,0.3-0.4,0.6-0.8,0.8c-4.4,2.7-9.2,4.4-14.4,5.1c-0.3,0-0.5-0.1-0.5-0.4
		v-1.4c0-0.3-0.2-0.5-0.5-0.5c-5.2-0.3-7,0.6-5.4,2.6"/>
	<path vector-effect="non-scaling-stroke" class="st88" d="M382.6,800.6l-47.2-18.3c-0.3-0.1-0.7-0.1-1,0l-11.5,5.4
		c-0.2,0.1-0.2,0.3-0.2,0.5c0,0.1,0.1,0.1,0.2,0.2c37.6,16,76.2,30.1,114.2,44.9"/>
	<path vector-effect="non-scaling-stroke" class="st58" d="M437.2,833.4c-6.8,2.1-13.2,5.2-19.3,9.3c-0.2,0.2-0.2,0.3,0,0.4l0.8,0.3
		c0.3,0.1,0.3,0.2,0,0.4c-5.8,3-11.2,3.3-15.4,7.2c-0.1,0.1-0.3,0.1-0.4,0l-0.3-0.2c-0.4-0.2-0.6-0.1-0.7,0.3c0,0.2,0,0.3,0,0.5"/>
	<path vector-effect="non-scaling-stroke" class="st88" d="M401.9,851.6l-88.5-34.9"/>
	<path vector-effect="non-scaling-stroke" class="st83" d="M467.6,877.5c2.8-3.4,6.3-5.6,10.5-6.8c0.1,0,0.2-0.1,0.2-0.2
		s-0.1-0.2-0.2-0.2h-4.3c-0.3,0-0.3-0.1-0.1-0.2c2.6-1.6,7.4-0.2,11.2-2.1c2.8-1.4,5.6-2.8,8.5-4.1c1.4-0.6,3.3-0.5,4.8-1.3
		c0.3-0.2,0.6-0.2,0.9-0.2c1.4,0,2.8-1.1,4.3-3.3"/>
	<path vector-effect="non-scaling-stroke" class="st99" d="M725.3,818.1l-124,49.8"/>
	<path vector-effect="non-scaling-stroke" class="st100" d="M601.4,867.9c0-4,1.4-7.4,4.2-10.2c0.4-0.4,0.7-0.3,1,0.1l0.6,0.9
		c0.1,0.2,0.3,0.2,0.5,0l11.6-13.1c0.2-0.2,0.4-0.4,0.7-0.4c2.5-0.6,4.5-2,5.9-4.1c0.1-0.2,0.1-0.3-0.1-0.4l-0.7-0.3
		c-0.6-0.3-0.6-0.6-0.2-1.1l3.5-3.8c0,0,0-0.1,0-0.2c0,0,0,0,0,0c-0.3-0.1-0.5-0.1-0.6,0.1c-0.3,0.4-0.6,0.6-1.1,0.4l-1.1-0.3
		c-0.5-0.1-0.6-0.4-0.3-0.8c2.3-3.8,2.2-6.4-0.1-7.7"/>
	<path vector-effect="non-scaling-stroke" class="st99" d="M625.1,827.2l99-38.5c0.4-0.1,0.5-0.5,0.4-0.9c-0.1-0.2-0.2-0.3-0.3-0.4
		l-10.2-5.3"/>
	<path vector-effect="non-scaling-stroke" class="st97" d="M401.9,851.6l65.7,25.9"/>
	<path vector-effect="non-scaling-stroke" class="st69" d="M467.6,877.5l54.3,21.7c0.6,0.2,1.2,0.2,1.8,0l77.7-31.3"/>
	<path vector-effect="non-scaling-stroke" class="st1" d="M507,253.1c4.4,1.7,9.7-1.4,11.9-7c2.2-5.6,0.4-11.5-3.9-13.2l0,0
		c-4.4-1.7-9.7,1.4-11.9,7S502.6,251.4,507,253.1L507,253.1"/>
	<path vector-effect="non-scaling-stroke" class="st7" d="M310.4,275.8c3.7,2.1,8.4,0.6,10.6-3.2c0,0,0,0,0,0
		c2.2-3.8,0.9-8.6-2.8-10.7c0,0,0,0,0,0c-3.7-2.1-8.4-0.6-10.6,3.2c0,0,0,0,0,0C305.4,268.9,306.7,273.7,310.4,275.8L310.4,275.8"/>
	<path vector-effect="non-scaling-stroke" class="st1" d="M582.4,294.6c6.1,4.4,10.8,2.3,13.5-3.9c2.5-5.7,3.2-10.7-2.8-14.7
		C586.6,271.7,573.7,288.4,582.4,294.6"/>
	<path vector-effect="non-scaling-stroke" class="st7" d="M310.5,327.5c3.2,2.2,7.7,1.2,10-2.3c0,0,0,0,0,0c2.4-3.4,1.7-8-1.5-10.2
		l0,0c-3.2-2.2-7.7-1.2-10,2.3l0,0C306.6,320.8,307.3,325.4,310.5,327.5L310.5,327.5"/>
	<path vector-effect="non-scaling-stroke" class="st22" d="M817.1,243.2l-1-2.4c0-0.1-0.2-0.2-0.3-0.1l-5.9,2.4
		c-5.9,2.4-10.5,5-10.2,5.7c0,0,0,0,0,0l0.1,0.2c0.3,0.7,5.4-0.7,11.3-3.1l5.9-2.4C817.1,243.5,817.1,243.4,817.1,243.2"/>
	<path vector-effect="non-scaling-stroke" class="st15" d="M774.2,591.9c0.4-0.3,0.4-0.8,0.1-1.2c-0.2-0.3-0.6-0.4-1-0.3
		c-3.5,1.5-7.1,3.1-11,4.8c-5.1,2.2-5,6.1-3.4,10.3c0.2,0.4,0.6,0.6,1,0.5c0.2-0.1,0.4-0.3,0.5-0.5
		C763.7,597.2,767.8,596.8,774.2,591.9"/>
	<path vector-effect="non-scaling-stroke" class="st3" d="M555.7,556c10.3,37.4,51.7,40.5,78.8,19.9c20.2-15.4,31.8-35.8,34.8-61.2"
		/>
	<path vector-effect="non-scaling-stroke" class="st11" d="M669.3,514.7c2.3-22.1-4.4-46.3-25.2-56.5c-22.7-11.2-50.1,0.5-66.2,17.2
		c-20.3,21-30.3,51.7-22.2,80.6"/>
	<path vector-effect="non-scaling-stroke" class="st93" d="M669.3,514.7c-0.7,0.3-2.1,0.2-4.1-0.4c-0.2,0-0.6-0.1-1.3-0.2
		c-0.5-0.1-0.9-0.3-1.2-0.7"/>
	<path vector-effect="non-scaling-stroke" class="st88" d="M662.6,513.4c2.2-26.9-16.8-52.5-46-43.3"/>
	<path vector-effect="non-scaling-stroke" class="st85" d="M616.6,470.1c-2.6,0.1-5.6,1.1-8.9,3"/>
	<path vector-effect="non-scaling-stroke" class="st87" d="M607.7,473.1c-9.3,4.1-17.4,10-24.2,17.6c-0.1,0.1-0.1,0.2-0.1,0.3
		s0.2,0.1,0.4,0"/>
	<path vector-effect="non-scaling-stroke" class="st44" d="M583.9,491c-5.8,5.6-9.7,11.8-11.8,18.7"/>
	<path vector-effect="non-scaling-stroke" class="st89" d="M572,509.7c-5.8,13.5-7.3,26.9-4.4,40.2"/>
	<path vector-effect="non-scaling-stroke" class="st93" d="M567.6,550c-0.6,5.5-7,1-9.6,0.6c-0.4-0.1-0.8,0.1-1,0.5
		c-0.4,0.8-0.5,1.6-0.3,2.5c0.1,0.2,0,0.4-0.1,0.6l-1,1.9"/>
	<path vector-effect="non-scaling-stroke" class="st101" d="M570.1,557.7c1.9,8.5,11.2,15.8,18.6,19.4c14.6,7.1,34.9-0.4,46.2-10.5
		c0.4-0.3,0.5-0.7,0.4-1.2"/>
	<path vector-effect="non-scaling-stroke" class="st23" d="M635.3,565.4l1.3-1.8"/>
	<path vector-effect="non-scaling-stroke" class="st93" d="M636.7,563.7c0.9,0.7,1.6,0.8,2.2,0.5c5-2.6,8.1-6.6,9.4-11.9"/>
	<path vector-effect="non-scaling-stroke" class="st101" d="M662.6,513.4c-1,14.2-5.8,27.1-14.4,38.9"/>
	<path vector-effect="non-scaling-stroke" class="st88" d="M648.2,552.3l-4.4-5.3c-0.3-0.3-0.6-0.3-0.9,0l-10.4,11"/>
	<path vector-effect="non-scaling-stroke" class="st69" d="M632.5,558l-4.4,2.8"/>
	<path vector-effect="non-scaling-stroke" class="st79" d="M628.1,560.9c-0.3-0.4-0.5-0.7-0.3-0.8c6.4-6.9,13.3-14,17.1-22.3
		c5.9-12.8,8.4-27.5,4.6-41.3"/>
	<path vector-effect="non-scaling-stroke" class="st102" d="M649.5,496.4c-2.2-8-6.6-14.7-13.2-20c-5.4-4.3-12-6.4-19.8-6.4"/>
	<path vector-effect="non-scaling-stroke" class="st18" d="M628.1,560.9l-1,0.9"/>
	<path vector-effect="non-scaling-stroke" class="st79" d="M627.1,561.7c-17,12.8-43.6,15.5-57-4"/>
	<path vector-effect="non-scaling-stroke" class="st103" d="M570.1,557.7c-0.7-0.7-1-1.9-0.7-3.4"/>
	<path vector-effect="non-scaling-stroke" class="st15" d="M569.4,554.3c3.4,5.1,7.7,9.1,12.8,12c11.1,6.2,27.7,1.9,37.9-4.4
		c0.3-0.2,0.5-0.5,0.5-0.9c0.1-1.3,0.5-2.4,1.3-3.4c5.3-6.6,12.2-12.9,15.9-19.6c3-5.3,5.1-11,6.4-17.1c1-4.7,3.7-7.7,2.3-13.1
		c-0.1-0.3-0.3-0.5-0.6-0.5c-0.4,0-0.6,0.1-0.6,0.5c0.1,2.6-0.7,4.5-2.5,5.7"/>
	<path vector-effect="non-scaling-stroke" class="st19" d="M642.9,513.6c-1.1-9.9-7.3-22.8-18.1-24.4c-10.6-1.6-19,1.2-28.9,4.9
		c-0.7,0.3-1.3,0.1-1.7-0.6c-0.7-1.1-1.7-1.7-2.9-1.9c-0.5-0.1-0.7,0.1-0.9,0.5c-0.2,0.7-0.6,1.2-1.3,1.3"/>
	<path vector-effect="non-scaling-stroke" class="st40" d="M589.2,493.4l-3.3-3c-0.3-0.3-0.7-0.3-1,0l-1,0.7"/>
	<path vector-effect="non-scaling-stroke" class="st104" d="M595.3,501c-1.1,3.6-2.5,6.4-4.2,8.2c-0.3,0.3-0.4,0.6-0.5,1
		c-0.5,2.1-1.4,3.9-3,5.5"/>
	<path vector-effect="non-scaling-stroke" class="st105" d="M587.3,515.5c-5-3.4-10.1-5.3-15.3-5.8"/>
	<path vector-effect="non-scaling-stroke" class="st25" d="M649.5,496.4c-0.6,1.2-1.2,1.5-2,0.9c-0.4-0.3-0.7-0.8-0.9-1.5
		c-6-18.9-17.8-27.9-38.3-21.7c-0.4,0.1-0.6-0.2-0.6-1.1"/>
	<path vector-effect="non-scaling-stroke" class="st92" d="M569.4,554.3l-1.8-4.3"/>
	<path vector-effect="non-scaling-stroke" class="st69" d="M627.1,561.7c2.6,2.1,5.4,3.4,8.3,3.7"/>
	<path vector-effect="non-scaling-stroke" class="st70" d="M636.7,563.7l-4.1-5.7"/>
	<path vector-effect="non-scaling-stroke" class="st16" d="M642.9,513.6c0.4,8.6-2.2,16.5-7.7,23.7c-7.9,10.3-23.5,21.1-37.1,17.1
		c-11.4-3.4-17.6-14.3-17.6-26c0-2.1,0.5-6.7,1.6-13.6c0-0.3,0.2-0.5,0.5-0.4c1.1,0.1,2.1,0.5,3,1.2c0.3,0.3,0.6,0.4,1,0.4
		c0.5,0,0.7-0.1,0.7-0.4"/>
	<path vector-effect="non-scaling-stroke" class="st45" d="M587.3,515.5c0-0.5,0.1-0.4,0.3,0.2"/>
	<path vector-effect="non-scaling-stroke" class="st106" d="M587.7,515.7c0.5,0.7,0.6,1.2,0.2,1.4c-4.7,12.7,0,33.4,18,28.7"/>
	<path vector-effect="non-scaling-stroke" class="st16" d="M605.8,545.7c-0.1,0.4-0.5,0.6-1.1,0.7c-0.4,0-0.6,0.2-0.6,0.6
		c-0.1,0.3,0,0.6,0.3,0.8c0.2,0.2,0.4,0.2,0.7,0.2c13.5,0.2,25.2-10.8,29.7-22.7c4.2-10.9,1.7-25.9-11.6-28.9c-0.2,0-0.3,0-0.2,0.2
		c0,0.1,0.1,0.2,0.3,0.3"/>
	<path vector-effect="non-scaling-stroke" class="st107" d="M623.2,497c-0.7,0-1.3-0.1-2-0.4"/>
	<path vector-effect="non-scaling-stroke" class="st106" d="M621.3,496.6c-6.4-1.2-12.4-0.4-18.1,2.4c-2.8,1.4-5.5,2.1-7.9,2.1"/>
	<path vector-effect="non-scaling-stroke" class="st45" d="M595.3,501c-1.1-2.5-3.1-5-6.1-7.6"/>
	<path vector-effect="non-scaling-stroke" class="st108" d="M621.3,496.6c3,10.1,3.1,24.1-3.8,32.4c-2.2,2.6-4,5.4-5.4,8.4
		c-1.8,3.6-4,5.1-7,7.3c-0.2,0.1-0.1,0.2,0.1,0.2l2.2,0.1"/>
	<path vector-effect="non-scaling-stroke" class="st109" d="M607.3,545c-0.9,0.2-1.4,0.4-1.4,0.7"/>
	<path vector-effect="non-scaling-stroke" class="st110" d="M607.3,545c14-5.1,23.2-12.7,25.1-28.3c0.9-7.5-0.9-17.2-9.2-19.7"/>
	<path class="st111" d="M786,140.6c-4.5,5.9-14.6,10.2-21.4,12.9c-32.9,12.9-65.5,26.4-97.9,40.4c-24.1,10.4-48.5,20-72.7,30.1
		c-3.6,1.5-13.9,6.2-15.1-0.8c-2.7-16,6.4-19.1,19.9-24.9c8-3.4,16.6-6.6,24-9.8c49-21.2,98.6-41.4,147.7-62.4c2.4-1,8.7-4.2,11-2.6
		C787.1,127,790.4,134.8,786,140.6z"/>
	<path class="st112" d="M796.4,222.4l-30,12.2l-9.9,4.1c-0.2-3-0.4-6-0.6-9.1c-0.1-1.8,0.2-3.4,2.4-3.1c0.4,0.1,0.7,0,1-0.3
		c5.3-4,12.6-6.6,18.7-9.5c2.8-1.3,4.5-1.9,7.7-0.8C789.8,217.3,793.4,219.4,796.4,222.4z"/>
	<path class="st113" d="M823.6,229.6l-44.1,18.1l-5.7-7c-0.1-0.1-0.1-0.2-0.1-0.4c0-0.1,0-0.2,0.1-0.3c0.3-0.4,0.3-0.8-0.2-1
		l-7.2-4.5l30-12.2c2.7-1.1,5.7-2.3,9-3.4c4.8-1.7,11.5-0.5,15.3,1.9C823.9,222.8,824.9,225.7,823.6,229.6z"/>
	<path class="st114" d="M823.6,229.6c-0.9,3.8-2.5,6.9-4.7,9.4c-0.2,0.2-0.2,0.6,0.1,0.8c0.1,0.1,0.2,0.1,0.3,0.1l8.2,0.8
		c0.4,0,0.7,0.3,0.8,0.7c1,3.1,1,6.2-0.1,9.2c-0.2,0.4-0.5,0.8-0.9,0.9l-19.3,8.3l-24.8,10.5l-4.6,2l-23.7,9.8l-125.6,52.2l-8.7-6.6
		c14.9-6.5,29.6-12.9,44.2-19.1c30-12.9,60.4-24.8,90.5-37.5c3.3-1.4,6.5-3.3,9.9-5.7c0.6-0.5,0.8-1.3,0.3-1.9
		c-0.1-0.2-0.3-0.3-0.4-0.4l-1.3-0.7c-0.3-0.2-0.6-0.2-0.9-0.1c-9,3.3-17.7,6.4-26.7,10.3c-23.9,10.2-61.5,26.1-112.9,47.6
		c-4.7,2-7.7,3.1-8.9,3.5l-2.7-1.9l-3.2-2.3c0-0.2,0-0.4,0.1-0.7c0.1-0.4,0.3-0.6,0.7-0.8l50.3-21.1l120.1-49.2L823.6,229.6z
		 M817.1,243.2l-1-2.4c0-0.1-0.2-0.2-0.3-0.1l-5.9,2.4c-5.9,2.4-10.5,5-10.2,5.7c0,0,0,0,0,0l0.1,0.2c0.3,0.7,5.4-0.7,11.3-3.1
		l5.9-2.4C817.1,243.5,817.1,243.4,817.1,243.2z"/>
	<ellipse transform="matrix(0.3665 -0.9304 0.9304 0.3665 97.658 629.3654)" class="st115" cx="511" cy="243" rx="10.9" ry="8.5"/>
	<path class="st116" d="M766.4,234.5l7.2,4.5c0.4,0.3,0.5,0.6,0.2,1c-0.1,0.1-0.1,0.2-0.1,0.3c0,0.1,0,0.3,0.1,0.4l5.7,7
		l-120.1,49.2c-0.1-0.2-0.2-0.4-0.5-0.4c-0.3-0.1-0.5-0.2-0.7-0.5c-1.8-3.7-5.7-7.8-6.7-11.5c-0.1-0.4-0.4-0.6-0.8-0.6h-2.3
		c34.5-14.5,69-28.8,103.7-42.9c1.5-0.6,3-1.4,4.4-2.3L766.4,234.5z"/>
	<path class="st117" d="M817.1,243.2c0,0.1,0,0.3-0.1,0.3l-5.9,2.4c-5.9,2.4-10.9,3.8-11.3,3.1l-0.1-0.2c-0.3-0.7,4.3-3.3,10.2-5.7
		c0,0,0,0,0,0l5.9-2.4c0.1,0,0.3,0,0.3,0.1L817.1,243.2z"/>
	<path class="st118" d="M533.9,268.4l-4.5,23.7c-0.1,0.4-0.2,0.7-0.4,1c-1.7,2.5-0.4,4.6-1.9,6.8c-0.3,0.5-0.6,0.5-0.7-0.1l-0.5-1.8
		c-0.1-0.4-0.3-0.4-0.5-0.1l-2.2,3.3c-0.2,0.3-0.3,0.3-0.3-0.1v-0.5c0-0.1-0.1-0.2-0.2-0.2c-0.1,0-0.1,0-0.2,0.1l-3,5.5
		c-0.2,0.4-0.2,0.7-0.2,1.1c0.2,0.9-0.1,1.7-0.8,2.4c-0.1,0.1-0.1,0.1-0.2,0l-0.4-0.4c-0.1-0.1-0.2-0.1-0.3,0c0,0-0.1,0.1-0.1,0.1
		c-0.1,1.8-0.7,3.5-1.8,5.1L469,280c-0.3-0.2-0.4-0.6-0.4-0.9c0.3-1.3,0.1-2.1-0.7-2.3c12.9-5.2,25.8-10.4,38.7-15.6
		c6.8-2.7,9.8-4.1,16.7,0.2C527.1,263.7,530.6,266.1,533.9,268.4z"/>
	<path class="st116" d="M808.1,259.8l-0.1,44c-5.8-5.8-11.9-10.5-18.2-14.3c-0.3-0.2-0.5-0.4-0.7-0.7c-1.4-2.3-3.2-2.8-5.3-1.4
		l-0.5-17.1L808.1,259.8z"/>
	
		<ellipse transform="matrix(0.4879 -0.8729 0.8729 0.4879 -73.7079 412.0184)" class="st119" cx="314.3" cy="268.8" rx="8" ry="7.7"/>
	<path class="st116" d="M620.6,327.8l-6.3-4.1c1.3-0.4,4.2-1.6,8.9-3.5c51.4-21.5,89-37.4,112.9-47.6c9-3.8,17.7-6.9,26.7-10.3
		c0.3-0.1,0.6-0.1,0.9,0.1l1.3,0.7c0.7,0.4,0.9,1.2,0.5,1.9c-0.1,0.2-0.2,0.3-0.4,0.4c-3.3,2.4-6.6,4.3-9.9,5.7
		c-30.1,12.7-60.5,24.6-90.5,37.5C650.2,314.9,635.5,321.3,620.6,327.8z"/>
	<path class="st120" d="M533.9,268.4l44.8,30.7c1.1,4.3,0.9,8.6-0.5,12.7c-0.1,0.4-0.1,0.7,0.1,1c0.6,1.2,0.6,2.3-0.1,3.3
		c-0.2,0.3-0.3,0.7-0.1,1.1c0.9,2.2,1,4.3,0.2,6.4c-0.1,0.4-0.1,0.8,0.2,1.1c1.1,1.5,1.4,3.1,0.8,4.9c-0.1,0.4-0.2,0.8-0.1,1.3
		c0.2,1.6-0.3,3.1-1.4,4.4c-0.1,0.1-0.2,0.1-0.3,0c0-0.1-0.1-0.2-0.1-0.3c-0.1-0.9-0.3-1-0.6-0.3l-0.4,0.7c-0.1,0.1-0.2,0.2-0.3,0.1
		c-0.1,0-0.2-0.1-0.2-0.2c0-0.1,0-0.2,0-0.4c0-0.1-0.1-0.3-0.3-0.3c-0.1,0-0.2,0-0.2,0.1c-1.7,2.9-2.2,6.1-1.3,9.5
		c0.1,0.4,0.1,0.7,0,1.1c-0.5,1.6-0.5,3.1,0.1,4.7c0.5,1.3,0.1,2.7-1,3.3c-0.2,0.1-0.3,0.6-0.1,1.6l-7.3-5.2L516,314.2
		c1.1-1.6,1.7-3.3,1.8-5.1c0-0.1,0.1-0.2,0.2-0.2c0.1,0,0.1,0,0.1,0.1l0.4,0.4c0.1,0.1,0.1,0.1,0.2,0c0.7-0.7,0.9-1.4,0.8-2.4
		c-0.1-0.4,0-0.8,0.2-1.1l3-5.5c0.1-0.1,0.2-0.1,0.3-0.1c0.1,0,0.1,0.1,0.1,0.2v0.5c0,0.4,0.1,0.4,0.3,0.1l2.2-3.3
		c0.2-0.3,0.4-0.3,0.5,0.1l0.5,1.8c0.1,0.6,0.4,0.6,0.7,0.1c1.4-2.2,0.2-4.2,1.9-6.8c0.2-0.3,0.3-0.6,0.4-1L533.9,268.4z"/>
	<path class="st112" d="M783.3,270.3l0.5,17.1l0,126.5l0,52.7l0,57.2l0.3,56c0,0.4,0.3,0.7,0.7,0.7c0.1,0,0.2,0,0.2,0l21.6-8.3
		c-0.6,1.5-0.5,2.7,0.3,3.6c0.3,0.3,0.6,0.4,0.9,0.2l50-20.5c1.4-0.6,3.1,0.1,3.7,1.5c0,0,0,0.1,0,0.1c2.5,7-2.6,10.4-8.6,12.9
		c-24.6,10.6-49.4,20.9-74.2,31c-1.8,0.7-3.7,2-5.6,2.7c-0.4,0.1-0.6,0.4-0.8,0.8c-0.4,1-0.4,2.1-1,3c-3.1,4.5-8.7,5.8-12.1,0.6
		c-0.2-0.3-0.5-0.5-0.9-0.7c-5.3-1.7-10.3-3.8-15.2-6.3c-3.8-2-7.4,3.8-12.3,0.5c-5.5-3.6-5.2-16.5,2.3-18.1
		c12-2.7,23.5-8.3,34.4-13.9c0.3-0.2,0.5-0.6,0.3-0.9c-0.1-0.2-0.2-0.3-0.4-0.4l-10.8-3.9c-0.3-0.1-0.5-0.4-0.5-0.7l-0.4-89.4
		c0.3-0.1,0.5-0.2,0.8-0.2c0.1,0,0.2,0,0.3,0.1c0.1,0.1,0.1,0.2,0.1,0.3c0,0.2,0.2,0.4,0.4,0.4c6.5,0.1,12.6,1.7,18.2,4.9
		c0.2,0.1,0.3,0.1,0.4-0.1l0.2-0.2c0.1-0.1,0.2-0.1,0.3,0.1c0.1,0.2,0.1,0.4,0.2,0.6c0,0.1,0.2,0.2,0.3,0.2c0.1,0,0.2-0.1,0.2-0.2
		l-0.1-105.2c0.3-32.9,0.5-65.7,0.3-98.6c0-1.6,0.7-2.5,1.4-3.9L783.3,270.3z M774.2,591.9c0.4-0.3,0.4-0.8,0.1-1.2
		c-0.2-0.3-0.6-0.4-1-0.3c-3.5,1.5-7.1,3.1-11,4.8c-5.1,2.2-5,6.1-3.4,10.3c0.2,0.4,0.6,0.6,1,0.5c0.2-0.1,0.4-0.3,0.5-0.5
		C763.7,597.2,767.8,596.8,774.2,591.9z"/>
	<path class="st116" d="M778.7,272.4c-0.7,1.4-1.4,2.3-1.4,3.9c0.1,32.9,0,65.7-0.3,98.6l-0.3-0.9c-0.1-0.3-0.2-0.3-0.3,0
		c-0.5,1.3-1.4,1.6-2.6,0.9c-1.7-1-6.8-3.2-6.7-3.3c0.1-0.3,0-0.6-0.4-0.7c-3.5-1-4.6-3.5-7.5-4.7c-1.1-0.5-2.2-0.9-3.3-1.3
		l-0.1-81.8c0-0.3-0.2-0.6-0.5-0.7c-0.1-0.1-0.2-0.1-0.4-0.2L778.7,272.4z"/>
	<path class="st115" d="M582.4,294.6c-8.7-6.2,4.2-22.9,10.6-18.6c6,4,5.3,9,2.8,14.7C593.2,297,588.5,299,582.4,294.6z"/>
	<path class="st119" d="M468,276.7c0.8,0.2,1,1,0.7,2.3c-0.1,0.4,0,0.7,0.4,0.9l47,34.3l49.8,35.5c-0.5,0.3-1,0.4-1.5,0.3
		c-0.4-0.1-0.7,0-1,0.2c-4.7,3.5-9.4,6.9-14.2,10.3c-2.6,1.8-4.7,1.9-7.7,2.5c-0.6,0.1-0.7,0.3-0.1,0.7l1.6,1c0.4,0.2,0.4,0.5,0,0.8
		c-7.4,6.3-14.9,13.2-23,18.6c-2.5,1.6-4.9,3.3-7.4,5c-0.2,0.1-0.2,0.2,0,0.4l1.5,0.8c0.4,0.2,0.4,0.5,0,0.7l-11.3,5.7
		c-0.3,0.2-0.7,0.3-1.1,0.3c-1.4,0-2.7-0.4-3.8-1.2c-0.3-0.2-0.7-0.3-1.1-0.2c-2.3,0.4-4,1.7-5,3.7l-11-7.7L430.6,356l-27.5-19.8
		c-0.7-0.5-1.7-0.4-2.2,0.4c0,0-0.1,0.1-0.1,0.1c-3,5.1-8.3,7.7-13.1,11.1c-5.9,4.1-10.7,9.7-15.8,14.8c-4,4-6.7,9.1-10.5,13.5
		c-4.2,4.9-5,11-9.5,16.3c-1.6,1.9-3.3,5.2-6.5,6.5c-0.3,0.1-0.5,0.3-0.6,0.6l-1.6,4.7c-0.1,0.4-0.4,0.5-0.7,0.2l-0.4-0.4
		c-0.5-0.5-0.8-0.4-1,0.3l-0.7,2.2c-0.1,0.3-0.3,0.6-0.7,0.7c-0.2,0.1-0.3,0.1-0.4,0.3c0,0.1-0.1,0.1-0.1,0.2c0,0.3,0,0.4,0.2,0.3
		c0.3-0.2,0.4-0.1,0.4,0.2c0,1.3-0.6,2.1-1.8,2.3c-0.3,0.1-0.5,0.3-0.6,0.6c-0.2,1-0.7,1.7-1.5,2.1l4.6-14.2l3.6-11.1l14.1-40.7
		c1.4-2.1,2.8-4.5,4.3-7.3c4.3-8.1,9-14.4,14.1-18.9c5.7-5,13.8-8.2,21.1-11.7C421.1,298.2,444.5,287.4,468,276.7z"/>
	<path class="st121" d="M659.4,296.9l-50.3,21.1c-0.4,0.2-0.6,0.4-0.7,0.8c-0.1,0.2-0.1,0.5-0.1,0.7L591,307.4l57.5-23.5h2.3
		c0.4,0,0.7,0.3,0.8,0.6c1,3.7,4.8,7.8,6.7,11.5c0.1,0.3,0.4,0.4,0.7,0.5C659.2,296.6,659.4,296.7,659.4,296.9z"/>
	<path class="st122" d="M808,303.8l0.3,116.3l-0.3,4.2c0,0.3-0.3,0.6-0.7,0.6c-0.3,0-0.5-0.2-0.6-0.4l-0.3-0.9
		c-0.1-0.4-0.4-0.6-0.9-0.6c-3.3,0-5.5-1.8-8.3-2.4c-2.5-0.6-5-1.3-7.4-2.2c-0.3-0.1-0.5-0.3-0.7-0.6c-0.5-0.9-1.2-1.5-2.2-1.9
		c-0.3-0.1-0.6-0.2-1-0.1c-1.1,0.1-1.9-0.5-2.4-1.8l0-126.5c2.1-1.3,3.9-0.9,5.3,1.4c0.2,0.3,0.4,0.5,0.7,0.7
		C796.1,293.3,802.2,298,808,303.8z"/>
	<path class="st117" d="M578.8,299.1l12.2,8.3l17.4,12.2l3.2,2.3l-2.2,0.1c-0.4,0-0.7,0.3-0.7,0.7c-0.6,8.1,0.3,16.2-0.6,24.1
		c-0.6,5.6-1,11.3-1.2,16.9c-0.1,2.6-1,5.3-0.7,8.3c0,0.3-0.2,0.6-0.5,0.7c-0.2,0-0.5-0.1-0.6-0.3c0-0.1-0.1-0.1-0.1-0.3
		c0-0.1-0.1-0.1-0.2-0.1c-0.6,0.1-0.8,0.4-0.6,1c0.1,0.3,0,0.5-0.3,0.7c-0.9,0.3-1.4,0.8-1.7,1.5l-29-20.2c-0.2-0.9-0.1-1.4,0.1-1.6
		c1-0.6,1.5-2,1-3.3c-0.6-1.5-0.6-3.1-0.1-4.7c0.1-0.4,0.1-0.7,0-1.1c-0.8-3.4-0.4-6.6,1.3-9.5c0.1-0.1,0.2-0.2,0.4-0.1
		c0.1,0,0.1,0.1,0.1,0.2c0,0.1,0,0.2,0,0.4c0,0.1,0.1,0.3,0.3,0.3c0.1,0,0.2-0.1,0.2-0.2l0.4-0.7c0.3-0.7,0.5-0.6,0.6,0.3
		c0,0.1,0,0.2,0.1,0.3c0.1,0.1,0.1,0.2,0.3,0c1.1-1.3,1.5-2.8,1.4-4.4c0-0.4,0-0.9,0.1-1.3c0.6-1.8,0.3-3.4-0.8-4.9
		c-0.2-0.3-0.3-0.8-0.2-1.1c0.8-2.1,0.8-4.2-0.2-6.4c-0.2-0.4-0.1-0.8,0.1-1.1c0.7-1,0.8-2.1,0.1-3.3c-0.2-0.3-0.2-0.7-0.1-1
		C579.7,307.6,579.9,303.4,578.8,299.1z"/>
	
		<ellipse transform="matrix(0.5664 -0.8241 0.8241 0.5664 -128.3365 398.7022)" class="st119" cx="314.7" cy="321.3" rx="7.6" ry="7"/>
	<path class="st112" d="M273.8,325.1c-0.5,1-0.8,1.6-1.9,2.1c-5.2,2.2-10.5,4.3-15.8,6.4l-23-9.5c0.8-1.2,1.5-1,2.5-1.4
		c3.6-1.5,14.4-7.2,17.7-5.9C260.1,319.7,267,322.4,273.8,325.1z"/>
	<path class="st113" d="M611.6,321.9l2.7,1.9l6.3,4.1l8.7,6.6l52.4,37.8c-3.3-0.4-6.5-1-9.5-1.6c-21.9-4.4-43.2-3.1-64.4,4.3
		c-2.4,0.8-4.3,0.9-5.8,0.3c0.3-0.7,0.9-1.2,1.7-1.5c0.3-0.1,0.4-0.3,0.3-0.7c-0.2-0.6,0-1,0.6-1c0.1,0,0.1,0,0.2,0.1
		c0.1,0.1,0.1,0.2,0.1,0.3c0.2,0.3,0.6,0.4,0.8,0.2c0.2-0.1,0.3-0.4,0.3-0.6c-0.3-3,0.7-5.7,0.7-8.3c0.1-5.7,0.5-11.3,1.2-16.9
		c0.9-7.9,0-16,0.6-24.1c0-0.4,0.3-0.6,0.7-0.7L611.6,321.9z"/>
	<path class="st123" d="M233.1,324.2l23,9.5c0.7,3.4,1,6.9,0.8,10.5c-0.4,9.6-0.3,19.2-0.3,29.1l-10.6-4.9c-0.4-0.2-0.9,0-1.1,0.4
		c0,0.1,0,0.1-0.1,0.2c-0.8,3.7-1,7.3-0.6,11c0.5,5,8.9,6.2,12.3,5.3l0,198.6l-11.2-3.9c-0.4-0.1-0.7,0.1-0.9,0.4c0,0,0,0.1,0,0.1
		c-0.7,4.2-0.8,8.4-0.1,12.6c0.1,0.4,0.3,0.7,0.6,0.9c3.4,2.3,7.4,3.5,11.8,3.6l0.1,21.2c0.3-0.6,0.3-0.3-0.1,1.2
		c-8.1,3.4-17.5,6.3-25,10.8l-0.2-305.9c0-0.4,0.2-0.6,0.7-0.6L233.1,324.2z"/>
	<path class="st113" d="M273.8,325.1l0.5,0.2c0.4,0.1,0.6,0.4,0.6,0.8l0,55.7c0.1,13.1,0.2,26.3,0.3,39.6c0,0.7,0.4,1.4,0.6,2.1
		c0,0.1,0.1,0.1,0.1,0.1c0.1,0,0.1-0.1,0.1-0.1l0.4-8.1c0-0.4,0.3-0.7,0.6-0.8c4.9-1.7,10-3.3,14.5-5.2
		c17.1-7.1,34.7-14.4,52.6-21.8l-3.6,11.1c-14.6,6.5-29.4,13-44.4,19.3c-5.6,2.4-11.3,4.6-17.1,6.7c-0.4,0.1-0.7,0.2-1.1,0.2h-2.6
		c-0.5,0-0.7,0.2-0.7,0.7l0.1,51.9l0.1,12.3v55.6l0,10.6l0.1,34.6l0.1,20c0,0.4-0.2,0.7-0.6,0.8l-17.5,7.2l-0.1-21.2l-0.2-13.7
		l0-198.6l0-12c0-9.9-0.1-19.5,0.3-29.1c0.1-3.6-0.1-7.1-0.8-10.5c5.3-2.1,10.5-4.2,15.8-6.4C273,326.8,273.3,326.1,273.8,325.1z"/>
	<path class="st124" d="M430.6,356c-3.8,4.4-7.8,8.5-12.1,12.3c-21.6,19.3-38.3,38.4-51.5,64.2c-4.9,9.5-8.4,16.8-10.6,21.8
		c-1.7,3.8,1.3,9.9,4.5,12.2c2.7,1.9,5.3,3.9,7.8,6c-0.6,2.3-1,3.9,0,6.2c4.3,10.9,9.5,21,14.5,31.5c3.2,6.8,9,11.7,10.8,20
		c1.2,5.2,4.5,9.4,7.5,13.6c2,2.8,2.8,5.8,5,8.5c4.5,5.5,7.1,11.7,10.9,17.5c2.6,3.9,4.7,8,6.3,12.2c0.4,1.1,0.2,2-0.5,2.9
		c-0.3,0.3-0.3,0.6-0.1,0.9c0.3,0.5,0.3,1.1,0.1,1.7c-0.1,0.2-0.2,0.3-0.4,0.3c-0.1,0-0.2,0-0.3,0l-13.1-9l-7.9-5.7
		c1.5-0.9,1.8-2.1,0.9-3.6c-2.8-4.7-5.1-9.6-8.2-14.1c-1.9-2.8-3.5-5.2-4.6-7.2c-2.4-4.2-6.7-8.5-6.7-12c0-0.4-0.1-0.7-0.3-1
		c-5.2-7.4-10.2-14.8-14.9-22.5c-1.5-2.4-4.3-5.3-5.2-7.3c-1.3-2.8-2.7-4.9-4.4-6.2c-0.3-0.3-0.5-0.2-0.5,0.2v1.1
		c0,0.3-0.1,0.4-0.4,0.2l-1.9-1.2c-0.3-0.2-0.4-0.4-0.4-0.7l-0.2-2.8c0-0.4-0.2-0.7-0.6-0.9l-1.5-0.9c-0.3-0.2-0.4-0.1-0.4,0.3
		c0,0.1,0,0.2,0,0.3c0,0.2-0.1,0.3-0.3,0.2l-1.6-0.9c-0.3-0.2-0.5-0.1-0.6,0.3l-0.3,1.4l0-30.6c0-0.4-0.2-0.7-0.5-0.9l-5-3.2
		l-13.9-9.9l-4.4-3.2c-0.5-0.3-0.7-1-0.5-1.5l11-33.5c0.8-0.4,1.4-1,1.5-2.1c0.1-0.3,0.2-0.5,0.6-0.6c1.2-0.2,1.8-1,1.8-2.3
		c0-0.4-0.1-0.4-0.4-0.2c-0.2,0.1-0.2,0-0.2-0.3c0-0.1,0-0.1,0.1-0.2c0.1-0.1,0.3-0.2,0.4-0.3c0.3-0.1,0.6-0.3,0.7-0.7l0.7-2.2
		c0.2-0.6,0.5-0.7,1-0.3l0.4,0.4c0.3,0.3,0.6,0.3,0.7-0.2l1.6-4.7c0.1-0.3,0.3-0.5,0.6-0.6c3.2-1.3,4.9-4.6,6.5-6.5
		c4.5-5.3,5.3-11.4,9.5-16.3c3.8-4.5,6.5-9.6,10.5-13.5c5.1-5,10-10.7,15.8-14.8c4.8-3.3,10-5.9,13.1-11.1c0.5-0.8,1.4-1,2.2-0.6
		c0,0,0.1,0,0.1,0.1L430.6,356z"/>
	<path class="st122" d="M358.3,347l-14.1,40.7c-17.9,7.4-35.5,14.7-52.6,21.8c-4.5,1.9-9.7,3.5-14.5,5.2c-0.4,0.1-0.6,0.5-0.6,0.8
		l-0.4,8.1c0,0.1,0,0.1-0.1,0.1c-0.1,0-0.1,0-0.1-0.1c-0.2-0.7-0.6-1.4-0.6-2.1c0-13.3-0.1-26.5-0.3-39.6L358.3,347z"/>
	<path class="st118" d="M565.8,349.8l7.3,5.2l29,20.2c1.5,0.6,3.4,0.5,5.8-0.3c0.3-0.1,0.7,0.4,1.1,1.5
		c-31.3,5.5-60.8,24.9-82.6,48.1l-28.9-20.9l-5.8-4.3c1-2,2.7-3.3,5-3.7c0.4-0.1,0.8,0,1.1,0.2c1.1,0.7,2.4,1.1,3.8,1.2
		c0.4,0,0.8-0.1,1.1-0.3l11.3-5.7c0.5-0.2,0.5-0.5,0-0.7l-1.5-0.8c-0.2-0.1-0.2-0.2,0-0.4c2.5-1.7,4.9-3.3,7.4-5
		c8.1-5.4,15.6-12.3,23-18.6c0.3-0.3,0.3-0.6,0-0.8l-1.6-1c-0.5-0.3-0.5-0.6,0.1-0.7c3-0.5,5.1-0.6,7.7-2.5
		c4.8-3.4,9.5-6.8,14.2-10.3c0.3-0.2,0.6-0.3,1-0.2C564.8,350.2,565.3,350.1,565.8,349.8z"/>
	<path class="st121" d="M430.6,356l49.9,35.5c-1.8,2.4-4.8,5.1-9.1,8.1c-3.4,2.4-7.3,7.6-11.7,10.4c-1.8,1.2-3.2,2.2-4.2,3.1
		c-11,10.3-20.9,21.6-29.6,33.7c-9.7,13.5-17.6,30.4-25.7,45.7c-0.2,0.4-0.2,0.7,0.1,1l1.3,1.7l-9.5-6.2l-23.5-16.6
		c-2.5-2.1-5.1-4.2-7.8-6c-3.2-2.2-6.2-8.4-4.5-12.2c2.2-5,5.7-12.3,10.6-21.8c13.2-25.8,29.9-44.9,51.5-64.2
		C422.8,364.5,426.9,360.4,430.6,356z"/>
	<path class="st117" d="M776.9,374.9L777,480c0,0.1-0.1,0.2-0.2,0.2c-0.1,0-0.2-0.1-0.2-0.2c-0.1-0.2-0.1-0.4-0.2-0.6
		c-0.1-0.2-0.1-0.2-0.3-0.1l-0.2,0.2c-0.1,0.1-0.2,0.1-0.4,0.1c-5.6-3.2-11.7-4.8-18.2-4.9c-0.2,0-0.4-0.1-0.4-0.4
		c0-0.1-0.1-0.2-0.1-0.3c-0.1-0.1-0.1-0.1-0.3-0.1c-0.3,0-0.6,0.1-0.8,0.2l0.3-109.4c1.1,0.4,2.2,0.8,3.3,1.3c2.9,1.2,4,3.7,7.5,4.7
		c0.4,0.1,0.5,0.3,0.4,0.7c0,0.1,5.1,2.3,6.7,3.3c1.2,0.7,2,0.4,2.6-0.9c0.1-0.3,0.2-0.3,0.3,0L776.9,374.9z"/>
	<path class="st117" d="M681.8,372.1c8.9,5,17.3,10.8,25.2,17.6c-2.7,2.7-2.1,7.1-1.8,10.8c0.4,5.2-1.5,9.9-3.4,14.7
		c-20.2-31.2-56.4-45.9-92.9-38.8c-0.4-1.1-0.7-1.6-1.1-1.5c21.2-7.4,42.5-8.7,64.4-4.3C675.3,371.2,678.4,371.7,681.8,372.1z"/>
	<path class="st125" d="M256.7,373.2l0,12c-3.4,0.9-11.7-0.3-12.3-5.3c-0.4-3.7-0.2-7.4,0.6-11c0.1-0.4,0.5-0.7,1-0.6
		c0.1,0,0.1,0,0.2,0.1L256.7,373.2z"/>
	<path class="st126" d="M701.8,415.2l7.5,12.8c6.5,15.4,10.1,31.3,10.9,47.8c-2-4.9-5.3-5.8-10.1-2.8c-3.7-21.1-9.6-37.8-24.1-53.8
		c0.9-0.9,1.1-1.7,0.5-2.2c-21.9-21.2-42.4-30.2-73.8-27.1c-38.2,4.9-71.8,30.4-93,61.4c-1,0-2-0.4-2.8-1.2c-0.1-0.1-0.1,0-0.2,0
		l-0.2,0.2c0,0-0.1,0.1-0.1,0c0,0,0,0,0-0.1c0-0.1-0.1-0.3-0.2-0.4c-0.1-0.2-0.1-0.3,0-0.5c1.6-3,2.2-6.2,2-9.6c0-0.4-0.2-0.8-0.6-1
		c-0.8-0.5-1.6-0.8-2.5-0.8c3.3-4.9,7.1-9.4,11.5-13.6c21.8-23.3,51.4-42.6,82.6-48.1C645.4,369.2,681.6,384,701.8,415.2z"/>
	<path class="st118" d="M685.9,419.2l-16.7-12.4c-8.6-5.3-16.9-8.7-24.6-10.1c-9.5-1.7-20.3-1.2-32.5,1.4c-0.7-0.3-1.1-1-1.3-2
		c0,0.2,0-0.1,0.1-0.7c0-0.1,0-0.3,0.1-0.4c0.1-0.4-0.1-0.7-0.5-0.9c-0.5-0.3-0.5-0.6-0.1-0.9c1.2-0.9,2-2,2.3-3.4
		c31.4-3,51.8,5.9,73.8,27.1C687,417.5,686.8,418.2,685.9,419.2z"/>
	<path class="st123" d="M612.7,389.9c-0.3,1.3-1.1,2.4-2.3,3.4c-0.5,0.3-0.4,0.6,0.1,0.9c0.4,0.2,0.5,0.5,0.5,0.9
		c-0.1,0.6-0.2,1.2-0.2,1.2c0,0,0,0,0-0.1c0.2,1,0.7,1.7,1.3,2c-51.1,10.4-92,58.4-107.3,106c-2.8,0-5.4-0.6-7.8-1.9
		c-0.3-0.2-0.6-0.2-0.9,0.1c-0.3,0.2-0.6,0.4-0.9,0.4c5.6-18.4,13.7-35.5,24.5-51.4C540.9,420.3,574.5,394.8,612.7,389.9z"/>
	<path class="st113" d="M707,389.7c22.6,23.5,33.2,55.6,36.5,87.4c-0.2,0.5-0.3,1-0.3,1.6c0,0.4-0.2,0.7-0.5,0.9
		c-5.7,3.2-7.8,5.6-14.6,6.5c-0.4-10.1-1.9-19.5-4.4-28.1c-3-10.4-7.8-20.4-14.4-30.1l-7.5-12.8c1.8-4.7,3.8-9.4,3.4-14.7
		C704.9,396.8,704.2,392.5,707,389.7z"/>
	<path class="st120" d="M480.6,391.6l11,7.7l5.8,4.3c-2.9,3.9-6.5,7.3-10.8,10c-0.3,0.2-0.3,0.4,0,0.6c0.2,0.1,0.3,0.3,0.3,0.5
		c0,0.2-0.1,0.5-0.4,0.8c-13.9,13.2-22.6,21.9-26.2,26.1c-7.2,8.5-14.4,16.9-21.7,25.3c-0.2,0.3-0.3,0.5-0.4,0.9
		c0,0.9-0.4,1.6-1.1,2.3c-0.4,0.4-0.3,0.7,0.3,0.8l0.5,0.1c0.1,0,0.3,0.2,0.2,0.3c0,0,0,0.1,0,0.1c-2.4,4.7-5,9.2-7.8,13.7
		c0,0.1-0.1,0.1-0.1,0.2c-0.6,0.7-1,0.8-1.1,0.1c0-0.1-0.1-0.2-0.2-0.2c-0.1,0-0.1,0-0.1,0.1l-10.5,19.3c-0.1,0.1,0,0.1,0.1,0.1h0.5
		c0.3,0,0.3,0.1,0.1,0.3c-0.6,0.5-0.9,1.1-1,1.7l-16.4-11.4l-1.3-1.7c-0.2-0.3-0.3-0.7-0.1-1c8.1-15.3,16-32.2,25.7-45.7
		c8.8-12.2,18.6-23.4,29.6-33.7c0.9-0.9,2.3-1.9,4.2-3.1c4.4-2.8,8.3-8,11.7-10.4C475.8,396.7,478.8,394,480.6,391.6z"/>
	<path class="st125" d="M669.2,406.8c-19.9-9-41.9-8.9-62.1-2.2c-64.2,21.4-107.7,91-102.2,157.9l-3.7,0.9c-0.3,0.1-0.4,0-0.4-0.3
		c0-0.1,0-0.2,0-0.4c0-0.4-0.1-0.5-0.5-0.3l-1.5,0.7l-0.2-2.1l-0.2-24.6c1-10.8,3.1-21.6,6.4-32.2c15.3-47.6,56.2-95.6,107.3-106
		c12.2-2.7,23-3.2,32.5-1.4C652.3,398.1,660.5,401.5,669.2,406.8z"/>
	<path class="st127" d="M669.2,406.8l16.7,12.4c14.5,16,20.4,32.7,24.1,53.8c6.6,62.4-28.8,127.6-84.6,157.1
		c-11.3,6-23.4,9.8-36.3,11.2c-14.7,1-31.6-1.6-44.7-10.1c-24.1-15.6-36.5-40.4-39.4-68.6c-5.5-66.9,38-136.5,102.2-157.9
		C627.3,397.9,649.3,397.8,669.2,406.8z M555.7,556c10.3,37.4,51.7,40.5,78.8,19.9c20.2-15.4,31.8-35.8,34.8-61.2
		c2.3-22.1-4.4-46.3-25.2-56.5c-22.7-11.2-50.1,0.5-66.2,17.2C557.5,496.4,547.6,527,555.7,556z"/>
	<path class="st116" d="M497.4,403.6l28.9,20.9c-4.3,4.2-8.1,8.7-11.5,13.6c-28.8,37.2-46,87-39.3,134c0.9,6.7,2.3,13.2,4.2,19.4
		c-0.6,0.3-1,0.7-1,1.2c-0.1,0.3-0.4,0.5-0.7,0.5c-0.1,0-0.3-0.1-0.4-0.2c-2.3-3.3-3.5-4.9-6.8-7.5c-3.5-2.8-2.5-6.8-5.3-10
		c-3.7-4.4-6.8-9.2-9.3-14.3c-0.2-0.3-0.1-0.6,0-0.9l0.2-0.3c0.2-0.3,0.1-0.8-0.2-1.1l-2.7-2.3c-0.2-0.2-0.4-0.2-0.6,0l-0.3,0.3
		c-0.3,0.2-0.5,0.2-0.7-0.1l-7.2-10.7c-0.2-0.3-0.2-0.7,0-1c0.3-0.5,0.4-1,0-1.4c-3.4-4.4-5.8-8.8-7-13.3c-0.1-0.3,0-0.5,0.1-0.7
		c0.1-0.1,0.1-0.2,0.2-0.3c0.1-0.1,0.1-0.3,0.1-0.4l-1.3-6.5c-0.1-0.3,0.1-0.7,0.3-0.9c0.7-0.5,0.8-1,0.2-1.4
		c-6.5-4.5-13-9.1-19.5-13.6c0.1-0.6,0.4-1.2,1-1.7c0.2-0.2,0.2-0.3-0.1-0.3h-0.5c-0.1,0-0.2,0-0.1-0.1l10.5-19.3
		c0-0.1,0.2-0.1,0.3-0.1c0.1,0,0.1,0.1,0.1,0.1c0.1,0.6,0.5,0.6,1.1-0.1c0-0.1,0.1-0.1,0.1-0.2c2.8-4.5,5.4-9,7.8-13.7
		c0.1-0.1,0-0.3-0.1-0.4c0,0-0.1,0-0.1,0l-0.5-0.1c-0.6-0.1-0.7-0.3-0.3-0.8c0.7-0.7,1-1.5,1.1-2.3c0-0.3,0.1-0.6,0.4-0.9
		c7.3-8.4,14.5-16.8,21.7-25.3c3.6-4.2,12.3-13,26.2-26.1c0.3-0.3,0.4-0.5,0.4-0.8c0-0.2-0.1-0.4-0.3-0.5c-0.3-0.2-0.3-0.4,0-0.6
		C490.9,410.9,494.5,407.5,497.4,403.6z"/>
	<path class="st120" d="M783.8,413.9c0.4,1.3,1.2,1.9,2.4,1.8c0.3,0,0.6,0,1,0.1c0.9,0.4,1.7,1,2.2,1.9c0.2,0.3,0.4,0.5,0.7,0.6
		c2.4,0.9,4.8,1.7,7.4,2.2c2.8,0.6,5,2.5,8.3,2.4c0.4,0,0.7,0.2,0.9,0.6l0.3,0.9c0.1,0.3,0.5,0.5,0.8,0.4c0.2-0.1,0.4-0.3,0.4-0.6
		l0.3-4.2l-0.4,54.7c-1.1-0.4-2.2-0.6-3.2-0.7c-2.9-0.3-4.5-1.1-6.9-2.3c-3.3-1.7-6.8-1.2-10.3-3c-0.4-0.2-0.7-0.3-1.1-0.2
		c-0.8,0-1.1-0.3-1.1-1.2c0-0.2-0.1-0.2-0.2-0.2h-0.4c-0.1,0-0.2-0.1-0.3-0.2c-0.1-0.7-0.3-0.8-0.7-0.4L783.8,413.9z"/>
	<path class="st128" d="M709.3,427.9c6.5,9.7,11.3,19.7,14.4,30.1c2.5,8.6,4,18,4.4,28.1c1.5,65-32,125.1-86,161.3
		c-13.5,9.1-27.9,15.5-43.2,19.3l-0.4-16.1l17.3-6.4c13-5.5,24.8-12.7,35.3-21.4c43.7-36.3,71-89.3,69.1-147.1
		C719.4,459.3,715.8,443.3,709.3,427.9z"/>
	<path class="st125" d="M514.8,438.1c0.9,0,1.7,0.2,2.5,0.8c0.3,0.2,0.5,0.6,0.6,1c0.2,3.3-0.4,6.5-2,9.6c-0.1,0.2-0.1,0.3,0,0.5
		c0.1,0.1,0.2,0.3,0.2,0.4c0,0.1,0.1,0.1,0.1,0.1c0,0,0,0,0.1,0l0.2-0.2c0.1-0.1,0.1-0.1,0.2,0c0.9,0.8,1.8,1.2,2.8,1.2
		c-10.8,15.9-19,33.1-24.5,51.4c-2.9,10.6-5,21.3-6.2,32.1c-1.1,9.1-1.3,17.9-0.5,26.4l1.4,10.5l-14.3,0.4
		C468.9,525.1,486.1,475.2,514.8,438.1z"/>
	<path class="st115" d="M329.9,451.3l13.9,9.9L287,484.8l-0.6-12.5c14.2-5.6,28.3-11.9,42.3-18.8c0.3-0.2,0.6-0.4,0.7-0.8
		L329.9,451.3z"/>
	<path class="st123" d="M669.3,514.7c-0.7,0.3-2.1,0.2-4.1-0.4c-0.2,0-0.6-0.1-1.3-0.2c-0.5-0.1-0.9-0.3-1.2-0.7
		c2.2-26.9-16.8-52.5-46-43.3c-2.6,0.1-5.6,1.1-8.9,3c-9.3,4.1-17.4,10-24.2,17.6c-0.1,0.1-0.1,0.2-0.1,0.3s0.2,0.1,0.4,0
		c-5.8,5.6-9.7,11.8-11.8,18.7c-5.8,13.5-7.3,26.9-4.4,40.2c-0.6,5.5-7,1-9.6,0.6c-0.4-0.1-0.8,0.1-1,0.5c-0.4,0.8-0.5,1.6-0.3,2.5
		c0.1,0.2,0,0.4-0.1,0.6l-1,1.9c-8.1-28.9,1.9-59.6,22.2-80.6c16.1-16.7,43.5-28.4,66.2-17.2C664.8,468.4,671.6,492.6,669.3,514.7z"
		/>
	<path class="st117" d="M808,474.8l0.4,57c-0.7-0.1-1.4-0.4-2-0.9c-0.2-0.2-0.4-0.2-0.6,0l-0.4,0.4c-0.2,0.2-0.4,0.2-0.6,0
		c-0.4-0.4-0.9-0.5-1.5-0.2c-0.4,0.2-0.8,0.2-1.1,0.1l-9.6-2.3c-0.2,0-0.3,0-0.2,0.2l0.1,0.3c0.1,0.3-0.1,0.5-0.4,0.3l-6.9-2.6
		c-0.4-0.1-0.6-0.5-0.6-0.9c0-1-0.2-1.8-0.6-2.5l0-57.2c0.3-0.4,0.5-0.3,0.7,0.4c0,0.1,0.1,0.2,0.3,0.2h0.4c0.2,0,0.2,0.1,0.2,0.2
		c-0.1,0.8,0.3,1.2,1.1,1.2c0.4,0,0.8,0.1,1.1,0.2c3.5,1.8,7,1.3,10.3,3c2.4,1.2,4,2,6.9,2.3C805.8,474.2,806.8,474.4,808,474.8z"/>
	<path class="st115" d="M662.6,513.4c-1,14.2-5.8,27.1-14.4,38.9l-4.4-5.3c-0.3-0.3-0.6-0.3-0.9,0l-10.4,11l-4.4,2.8
		c-0.3-0.4-0.5-0.7-0.3-0.8c6.4-6.9,13.3-14,17.1-22.3c5.9-12.8,8.4-27.5,4.6-41.3c-2.2-8-6.6-14.7-13.2-20
		c-5.4-4.3-12-6.4-19.8-6.4C645.8,460.9,664.9,486.5,662.6,513.4z"/>
	<path class="st117" d="M616.6,470.1c7.8-0.1,14.4,2,19.8,6.4c6.6,5.3,10.9,11.9,13.2,20c-0.6,1.2-1.2,1.5-2,0.9
		c-0.4-0.3-0.7-0.8-0.9-1.5c-6-18.9-17.8-27.9-38.3-21.7c-0.4,0.1-0.6-0.2-0.6-1.1C611,471.2,614,470.2,616.6,470.1z"/>
	<path class="st125" d="M720.2,475.7c1.9,57.8-25.4,110.9-69.1,147.1c-10.5,8.7-22.3,15.9-35.3,21.4c2.9-2.5,5.8-4.7,8.8-6.8
		c1.6-1.1,2.4-2.1,2.5-3.1c0.2-1.3-0.4-2.7-1.7-4.3c55.9-29.4,91.2-94.6,84.6-157.1C714.8,469.9,718.2,470.8,720.2,475.7z"/>
	<path class="st112" d="M286.5,472.3l0.6,12.5l-12.1,5l-0.1-12.3L286.5,472.3z"/>
	<path class="st118" d="M368.7,472.6l23.5,16.6c1.3,7.1,3.6,13.8,7.1,20.1c1.8,3.4,3.4,6.5,4.7,9.4c1.9,4.3,4.2,8.5,6.9,12.4
		c1.4,2.1,0.9,4.4,2.5,6.8c2.8,3.9,5.4,8,7.7,12.2c0.1,0.1,0.1,0.3,0,0.4c0,0.1-0.1,0.2-0.1,0.3c-0.1,0.2,0,0.5,0.2,0.7
		c1.5,1.1,2.8,2.5,3.6,4.2c0,0,0,0,0,0c0,0,0,0,0,0c0-0.1,0.1-0.2,0.1-0.3c0.1-0.3,0.2-0.4,0.4-0.1l4.8,8.4c0,0.1,0.1,0.1,0.2,0.2
		c0.3,0.1,0.4-0.1,0.3-0.6c0-0.1,0-0.1,0.1-0.1c0,0,0.1,0,0.1,0c2.2,3.3,4.2,6.6,6.1,10.1c0.7,1.4,0.7,3.2,2.5,4.3
		c0,0,0.1,0.1,0,0.1c0,0,0,0,0,0c-0.1,0-0.2,0.1-0.3,0.1c-0.1,0-0.1,0.1-0.1,0.2c7.1,9.8,14,19.8,20.6,30c1.1,1.7,1.7,3.5,1.7,5.5
		c0,0.4-0.2,0.6-0.6,0.7l-1,0.2L422.4,588c0.1,0,0.2,0,0.3,0c0.2,0,0.3-0.1,0.4-0.3c0.3-0.6,0.3-1.2-0.1-1.7
		c-0.2-0.3-0.2-0.6,0.1-0.9c0.8-0.9,1-1.8,0.5-2.9c-1.6-4.2-3.7-8.2-6.3-12.2c-3.9-5.8-6.5-12-10.9-17.5c-2.2-2.7-3-5.6-5-8.5
		c-3-4.2-6.3-8.5-7.5-13.6c-1.8-8.3-7.6-13.1-10.8-20c-4.9-10.6-10.2-20.6-14.5-31.5C367.8,476.5,368.1,474.8,368.7,472.6z"/>
	<path class="st113" d="M649.5,496.4c3.9,13.8,1.3,28.5-4.6,41.3c-3.9,8.3-10.7,15.4-17.1,22.3c-0.1,0.2,0,0.4,0.3,0.8l-1,0.9
		c-17,12.8-43.6,15.5-57-4c-0.7-0.7-1-1.9-0.7-3.4c3.4,5.1,7.7,9.1,12.8,12c11.1,6.2,27.7,1.9,37.9-4.4c0.3-0.2,0.5-0.5,0.5-0.9
		c0.1-1.3,0.5-2.4,1.3-3.4c5.3-6.6,12.2-12.9,15.9-19.6c3-5.3,5.1-11,6.4-17.1c1-4.7,3.7-7.7,2.3-13.1c-0.1-0.3-0.3-0.5-0.6-0.5
		c-0.4,0-0.6,0.1-0.6,0.5c0.1,2.6-0.7,4.5-2.5,5.7c-1.1-9.9-7.3-22.8-18.1-24.4c-10.6-1.6-19,1.2-28.9,4.9c-0.7,0.3-1.3,0.1-1.7-0.6
		c-0.7-1.1-1.7-1.7-2.9-1.9c-0.5-0.1-0.7,0.1-0.9,0.5c-0.2,0.7-0.6,1.2-1.3,1.3l-3.3-3c-0.3-0.3-0.7-0.3-1,0l-1,0.7
		c-0.2,0-0.4,0-0.4,0s0-0.2,0.1-0.3c6.8-7.6,14.9-13.5,24.2-17.6c0,0.9,0.2,1.2,0.6,1.1c20.5-6.2,32.3,2.8,38.3,21.7
		c0.2,0.7,0.5,1.2,0.9,1.5C648.3,497.9,649,497.6,649.5,496.4z"/>
	<path class="st112" d="M743.5,477.1c1.9,14.9,2.3,28.7,1.2,41.4c-0.9,10.2-4.4,20.5-8.5,30.9c-14.1,36.1-39.9,67.9-68.3,93.3
		c-19.1,17.1-44.5,33.9-69.4,41l0.4-16.9c15.3-3.8,29.7-10.2,43.2-19.3c54-36.3,87.5-96.3,86-161.3c6.8-1,9-3.4,14.6-6.5
		c0.3-0.2,0.5-0.5,0.5-0.9C743.2,478.1,743.3,477.6,743.5,477.1z"/>
	<path class="st116" d="M642.9,513.6c0.4,8.6-2.2,16.5-7.7,23.7c-7.9,10.3-23.5,21.1-37.1,17.1c-11.4-3.4-17.6-14.3-17.6-26
		c0-2.1,0.5-6.7,1.6-13.6c0-0.3,0.2-0.5,0.5-0.4c1.1,0.1,2.1,0.5,3,1.2c0.3,0.3,0.6,0.4,1,0.4c0.5,0,0.7-0.1,0.7-0.4
		c0-0.5,0.1-0.4,0.3,0.2c0.5,0.7,0.6,1.2,0.2,1.4c-4.7,12.7,0,33.4,18,28.7c-0.1,0.4-0.5,0.6-1.1,0.7c-0.4,0-0.6,0.2-0.6,0.6
		c-0.1,0.3,0,0.6,0.3,0.8c0.2,0.2,0.4,0.2,0.7,0.2c13.5,0.2,25.2-10.8,29.7-22.7c4.2-10.9,1.7-25.9-11.6-28.9c-0.2,0-0.3,0-0.2,0.2
		c0,0.1,0.1,0.2,0.3,0.3c-0.7,0-1.3-0.1-2-0.4c-6.4-1.2-12.4-0.4-18.1,2.4c-2.8,1.4-5.5,2.1-7.9,2.1c-1.1-2.5-3.1-5-6.1-7.6
		c0.7-0.1,1.1-0.5,1.3-1.3c0.1-0.4,0.4-0.6,0.9-0.5c1.2,0.2,2.2,0.9,2.9,1.9c0.4,0.7,1,0.8,1.7,0.6c9.9-3.7,18.2-6.6,28.9-4.9
		C635.6,490.8,641.8,503.7,642.9,513.6z"/>
	<path class="st114" d="M392.2,489.2l9.5,6.2l16.4,11.4c6.5,4.5,13,9.1,19.5,13.6c0.6,0.4,0.5,0.9-0.2,1.4c-0.3,0.2-0.4,0.5-0.3,0.9
		l1.3,6.5c0,0.2,0,0.3-0.1,0.4c-0.1,0.1-0.1,0.2-0.2,0.3c-0.2,0.2-0.2,0.4-0.1,0.7c1.3,4.5,3.6,8.9,7,13.3c0.3,0.4,0.3,0.9,0,1.4
		c-0.2,0.3-0.2,0.7,0,1l7.2,10.7c0.2,0.3,0.4,0.3,0.7,0.1l0.3-0.3c0.2-0.2,0.4-0.2,0.6,0l2.7,2.3c0.3,0.3,0.4,0.7,0.2,1.1l-0.2,0.3
		c-0.2,0.3-0.2,0.6,0,0.9c2.6,5.2,5.7,9.9,9.3,14.3c2.7,3.3,1.8,7.2,5.3,10c3.3,2.6,4.4,4.2,6.8,7.5c0.2,0.3,0.5,0.3,0.8,0.1
		c0.1-0.1,0.2-0.2,0.2-0.4c0.1-0.5,0.4-0.9,1-1.2l0.8,2.6c0.1,0.3,0.3,0.6,0.7,0.7c5.3,1.4,10.9,2.3,16.7,2.5
		c5.4,11.2,13.2,20.7,23.5,28.6c-2,1.8-4.6,3.1-7.8,4c-0.5,0.1-0.6,0.4-0.4,0.8l0.4,0.9c0.2,0.4,0.1,0.7-0.3,1l-1.6,0.8
		c-0.3,0.2-0.4,0.4-0.2,0.7c0.5,0.9,0.6,1.8,0.2,2.7c-0.5,1.4,0.2,2.9,1.5,3.4c0.1,0,0.1,0,0.2,0.1c1.9,0.5,3.4,2.3,5.2,3.2
		c5.4,2.6,10.9,4.8,16.5,6.7c1.7,0.6,3.8-0.1,5.5,1.5c0.2,0.2,0.3,0.4,0.1,0.7c-0.1,0.4-0.3,0.5-0.5,0.4c-0.4-0.2-0.8-0.2-1.1,0.2
		c-0.5,0.6-0.4,1,0.2,1.4c-9.3,1.7-17.8,1.9-25.6,0.5c-3.8-2.4-7.2-4.8-10.2-7.2c-9.5-7.6-18.7-14.1-27.8-21.5l-16-11.5l1-0.2
		c0.4-0.1,0.6-0.3,0.6-0.7c-0.1-2-0.7-3.8-1.7-5.5c-6.6-10.2-13.5-20.1-20.6-30c-0.1-0.1,0-0.2,0.1-0.2c0.1,0,0.2-0.1,0.3-0.1
		c0,0,0.1-0.1,0.1-0.1c0,0,0,0,0,0c-1.9-1-1.8-2.9-2.5-4.3c-1.9-3.5-3.9-6.9-6.1-10.1c0,0-0.1,0-0.1,0c0,0,0,0,0,0.1
		c0.1,0.5,0,0.7-0.3,0.6c-0.1,0-0.1-0.1-0.2-0.2l-4.8-8.4c-0.2-0.3-0.3-0.3-0.4,0.1c0,0.1-0.1,0.2-0.1,0.3c0,0,0,0,0,0c0,0,0,0,0,0
		l0,0c-0.9-1.7-2.1-3.1-3.6-4.2c-0.2-0.2-0.3-0.4-0.2-0.7c0-0.1,0.1-0.2,0.1-0.3c0-0.1,0-0.3,0-0.4c-2.4-4.2-4.9-8.3-7.7-12.2
		c-1.7-2.4-1.1-4.7-2.5-6.8c-2.7-4-4.9-8.1-6.9-12.4c-1.3-2.9-2.9-6.1-4.7-9.4C395.8,503,393.5,496.3,392.2,489.2z"/>
	<path class="st126" d="M589.2,493.4c3,2.6,5,5.1,6.1,7.6c-1.1,3.6-2.5,6.4-4.2,8.2c-0.3,0.3-0.4,0.6-0.5,1c-0.5,2.1-1.4,3.9-3,5.5
		c-0.2-0.6-0.4-0.7-0.3-0.2c-5-3.4-10.1-5.3-15.3-5.8c2.1-6.9,6-13.1,11.8-18.7l1-0.7c0.4-0.3,0.7-0.3,1,0L589.2,493.4z"/>
	<path class="st123" d="M401.5,573.3l-12.2-8.6l-18.3-13.6c-8.9-5.1-15-13.3-18.2-24.6l-2.8-13.9l-0.6-16.8l0.3-1.4
		c0.1-0.4,0.3-0.4,0.6-0.3l1.6,0.9c0.2,0.1,0.3,0,0.3-0.2c0-0.1,0-0.2,0-0.3c0-0.3,0.1-0.4,0.4-0.3l1.5,0.9c0.3,0.2,0.5,0.5,0.6,0.9
		l0.2,2.8c0,0.3,0.2,0.5,0.4,0.7l1.9,1.2c0.3,0.2,0.4,0.1,0.4-0.2v-1.1c0-0.4,0.2-0.5,0.5-0.2c1.6,1.3,3.1,3.4,4.4,6.2
		c0.9,2,3.7,4.9,5.2,7.3c4.7,7.6,9.7,15.1,14.9,22.5c0.2,0.3,0.3,0.6,0.3,1c0,3.5,4.3,7.8,6.7,12c1.1,2,2.7,4.4,4.6,7.2
		c3.1,4.5,5.4,9.4,8.2,14.1C403.3,571.2,403,572.4,401.5,573.3z"/>
	<path class="st129" d="M621.3,496.6c3,10.1,3.1,24.1-3.8,32.4c-2.2,2.6-4,5.4-5.4,8.4c-1.8,3.6-4,5.1-7,7.3
		c-0.2,0.1-0.1,0.2,0.1,0.2l2.2,0.1c-0.9,0.2-1.4,0.4-1.4,0.7c-18,4.7-22.7-16-18-28.7c0.4-0.2,0.3-0.7-0.2-1.4
		c1.5-1.6,2.5-3.4,3-5.5c0.1-0.4,0.3-0.7,0.5-1c1.7-1.8,3.1-4.5,4.2-8.2c2.4,0,5-0.6,7.9-2.1C608.8,496.1,614.9,495.4,621.3,496.6z"
		/>
	<path class="st112" d="M605.8,545.7c0-0.3,0.5-0.6,1.4-0.7c14-5.1,23.2-12.7,25.1-28.3c0.9-7.5-0.9-17.2-9.2-19.7
		c-0.1-0.1-0.2-0.2-0.3-0.3c0-0.2,0-0.3,0.2-0.2c13.3,3,15.8,18,11.6,28.9c-4.6,11.9-16.2,22.9-29.7,22.7c-0.3,0-0.6-0.1-0.7-0.2
		c-0.2-0.2-0.3-0.5-0.3-0.8c0.1-0.4,0.3-0.6,0.6-0.6C605.4,546.3,605.7,546.1,605.8,545.7z"/>
	<path class="st130" d="M621.3,496.6c0.6,0.3,1.3,0.4,2,0.4c8.2,2.5,10.1,12.2,9.2,19.7c-1.9,15.6-11.1,23.2-25.1,28.3l-2.2-0.1
		c-0.2,0-0.2-0.1-0.1-0.2c3-2.2,5.3-3.7,7-7.3c1.5-3,3.3-5.8,5.4-8.4C624.4,520.7,624.3,506.6,621.3,496.6z"/>
	<path class="st120" d="M504.8,504.1c-3.2,10.6-5.4,21.3-6.4,32.2c-3.7,0.5-6-3.1-9.5-1.4c1.2-10.9,3.2-21.6,6.2-32.1
		c0.3-0.1,0.6-0.2,0.9-0.4c0.3-0.2,0.6-0.3,0.9-0.1C499.3,503.5,501.9,504.2,504.8,504.1z"/>
	<path class="st112" d="M569.4,554.3l-1.8-4.3c-2.9-13.3-1.5-26.8,4.4-40.2c5.3,0.4,10.4,2.4,15.3,5.8c0.1,0.2-0.2,0.4-0.7,0.4
		c-0.4,0-0.7-0.1-1-0.4c-0.9-0.7-1.8-1.1-3-1.2c-0.3,0-0.5,0.1-0.5,0.4c-1.1,7-1.6,11.5-1.6,13.6c0,11.7,6.2,22.6,17.6,26
		c13.7,4,29.2-6.8,37.1-17.1c5.5-7.2,8.1-15.1,7.7-23.7c1.8-1.2,2.6-3.1,2.5-5.7c0-0.4,0.2-0.6,0.6-0.5c0.3,0,0.5,0.2,0.6,0.5
		c1.4,5.4-1.3,8.4-2.3,13.1c-1.3,6-3.4,11.7-6.4,17.1c-3.7,6.7-10.6,13-15.9,19.6c-0.8,1-1.2,2.1-1.3,3.4c0,0.4-0.2,0.7-0.5,0.9
		c-10.2,6.3-26.8,10.6-37.9,4.4C577.1,563.4,572.8,559.4,569.4,554.3z"/>
	<path class="st121" d="M662.6,513.4c0.3,0.4,0.7,0.6,1.2,0.7c0.7,0.1,1.1,0.1,1.3,0.2c2.1,0.6,3.4,0.7,4.1,0.4
		c-3,25.4-14.6,45.8-34.8,61.2c-27.1,20.7-68.5,17.5-78.8-19.9l1-1.9c0.1-0.2,0.1-0.4,0.1-0.6c-0.3-0.8-0.2-1.7,0.3-2.5
		c0.2-0.4,0.6-0.6,1-0.5c2.6,0.4,8.9,4.8,9.6-0.6l1.8,4.3c-0.3,1.5,0,2.7,0.7,3.4c1.9,8.5,11.2,15.8,18.6,19.4
		c14.6,7.1,34.9-0.4,46.2-10.5c0.4-0.3,0.5-0.7,0.4-1.2l1.3-1.8c0.9,0.7,1.6,0.8,2.2,0.5c5-2.6,8.1-6.6,9.4-11.9
		C656.8,540.5,661.6,527.6,662.6,513.4z"/>
	<path class="st113" d="M783.9,523.8c0.4,0.7,0.6,1.5,0.6,2.5c0,0.4,0.2,0.7,0.6,0.9l6.9,2.6c0.3,0.1,0.5,0,0.4-0.3l-0.1-0.3
		c0-0.2,0-0.3,0.2-0.2l9.6,2.3c0.4,0.1,0.8,0.1,1.1-0.1c0.6-0.2,1.1-0.2,1.5,0.2c0.2,0.2,0.4,0.2,0.6,0l0.4-0.4
		c0.2-0.2,0.4-0.2,0.6,0c0.7,0.5,1.3,0.8,2,0.9c0,12.9,0,25.8,0,38.7c0,1.1-0.6,1.7-1.7,1.6l-21.6,8.3c-0.3,0.1-0.7,0-0.9-0.4
		c0-0.1,0-0.2,0-0.2L783.9,523.8z"/>
	<path class="st127" d="M352.7,526.6c3.2,11.3,9.3,19.4,18.2,24.6c-5.4,1.5-11.5,4.6-15.5,6.2c-26.5,11-53.2,22.1-80.3,33.3L275,556
		c3.6,0.1,7.5-0.8,11.6-2.7c17.9-8,37.1-15.2,55.8-23.7C345.9,528.1,349.3,527,352.7,526.6z"/>
	<path class="st113" d="M498.4,536.3l0.2,24.6c-3.1,1.1-6.4,1.2-10.1,0.3c-0.8-8.4-0.7-17.2,0.5-26.4
		C492.4,533.2,494.7,536.8,498.4,536.3z"/>
	<path class="st123" d="M648.2,552.3c-1.2,5.4-4.4,9.3-9.4,11.9c-0.6,0.3-1.3,0.1-2.2-0.5l-4.1-5.7l10.4-11c0.3-0.3,0.6-0.3,0.9,0
		L648.2,552.3z"/>
	<path class="st124" d="M370.9,551.1l18.3,13.6L257,619.8c0.4-1.4,0.4-1.8,0.1-1.2l17.5-7.2c0.3-0.1,0.6-0.5,0.6-0.8l-0.1-20
		c27.1-11.2,53.9-22.3,80.3-33.3C359.4,555.7,365.4,552.6,370.9,551.1z"/>
	<path class="st115" d="M570.1,557.7c13.3,19.5,40,16.8,57,4c2.6,2.1,5.4,3.4,8.3,3.7c0.1,0.4,0,0.8-0.4,1.2
		c-11.3,10.1-31.6,17.5-46.2,10.5C581.3,573.5,572,566.2,570.1,557.7z"/>
	<path class="st114" d="M632.5,558l4.1,5.7l-1.3,1.8c-2.9-0.3-5.6-1.6-8.3-3.7l1-0.9L632.5,558z"/>
	<path class="st115" d="M498.6,560.9l0.2,2.1c4.3,33.5,24.2,64.2,56.7,75.2c0.2,0.1,0.5,0.1,0.7,0.1c0.9-0.1,1.6,0.2,1.9,1
		c0.1,0.3,0,0.5-0.4,0.4c-13.1-2.1-25.2-6.7-36.3-13.9c-10.3-7.8-18.1-17.3-23.5-28.6c-3.9-8.6-6.6-17.1-8-25.6l-1.4-10.5
		C492.2,562.2,495.6,562.1,498.6,560.9z"/>
	<path class="st120" d="M504.9,562.5c2.9,28.2,15.4,53,39.4,68.6c13.1,8.5,30,11.1,44.7,10.1c0.1,1.5-0.3,3.1,0.3,4.5
		c1,2.5,2.4,4.6,4.1,6.2l-2.8,0.9c-9.9,1.8-19.2,2.6-28,2.3c-8.5-1-14.7-1.8-23.1-0.8c-0.6-0.3-0.7-0.8-0.2-1.4
		c0.3-0.4,0.6-0.4,1.1-0.2c0.2,0.1,0.3,0,0.5-0.4c0.1-0.3,0.1-0.5-0.1-0.7c-1.7-1.6-3.8-0.9-5.5-1.5c-5.7-1.9-11.2-4.1-16.5-6.7
		c-1.8-0.9-3.3-2.6-5.2-3.2c-1.4-0.4-2.2-1.9-1.8-3.3c0-0.1,0-0.1,0.1-0.2c0.3-0.9,0.2-1.8-0.2-2.7c-0.2-0.3-0.1-0.6,0.2-0.7
		l1.6-0.8c0.4-0.2,0.5-0.5,0.3-1l-0.4-0.9c-0.2-0.4-0.1-0.7,0.4-0.8c3.3-0.9,5.9-2.2,7.8-4c11.1,7.1,23.2,11.8,36.3,13.9
		c0.4,0.1,0.5-0.1,0.4-0.4c-0.3-0.8-0.9-1.1-1.9-1c-0.2,0-0.5,0-0.7-0.1c-32.5-11-52.4-41.7-56.7-75.2l1.5-0.7
		c0.3-0.2,0.5,0,0.5,0.3c0,0.1,0,0.3,0,0.4c0,0.3,0.1,0.4,0.4,0.3L504.9,562.5z"/>
	<path class="st113" d="M389.2,564.7l12.2,8.6l7.9,5.7l-154.1,63.6c-0.5,0.2-1.1,0.2-1.5-0.1c-6.4-3.3-12.9-6.5-19.6-9.6
		c-1.1-0.5-1.6-1.2-2.1-2.3c7.5-4.5,16.9-7.4,25-10.8L389.2,564.7z"/>
	<path class="st124" d="M489.9,571.7c1.5,8.5,4.2,17,8,25.6c-5.8-0.3-11.4-1.1-16.7-2.5c-0.4-0.1-0.6-0.3-0.7-0.7l-0.8-2.6
		c-1.9-6.2-3.3-12.7-4.2-19.4L489.9,571.7z"/>
	<path class="st125" d="M256.8,583.8l0.2,13.7c-4.4,0-8.3-1.2-11.8-3.6c-0.3-0.2-0.5-0.5-0.6-0.9c-0.7-4.2-0.7-8.4,0.1-12.6
		c0.1-0.4,0.4-0.6,0.8-0.6c0,0,0.1,0,0.1,0L256.8,583.8z"/>
	<path class="st113" d="M774.2,591.9c-6.4,4.8-10.6,5.3-13.7,13.6c-0.2,0.4-0.6,0.6-1,0.5c-0.2-0.1-0.4-0.3-0.5-0.5
		c-1.6-4.2-1.8-8.1,3.4-10.3c3.9-1.6,7.5-3.2,11-4.8c0.4-0.2,0.9,0,1.1,0.5C774.6,591.3,774.5,591.7,774.2,591.9z"/>
	<path class="st123" d="M475.9,626c9.1,7.4,18.4,13.8,27.8,21.5c3.1,2.5,6.5,4.9,10.2,7.2c-14.3-1.3-37.5-4.3-39.3-23
		C474.4,629.9,474.8,628,475.9,626z"/>
	<path class="st124" d="M625.4,630c1.3,1.6,1.9,3,1.7,4.3c-0.1,1-1,2-2.5,3.1c-3,2.1-5.9,4.4-8.8,6.8l-17.3,6.4l-5,1.3
		c-1.7-1.6-3.1-3.7-4.1-6.2c-0.6-1.4-0.1-3-0.3-4.5C602,639.8,614.1,636,625.4,630z"/>
	<path class="st117" d="M474.7,631.7c1.8,18.7,25,21.7,39.3,23c7.8,1.4,16.3,1.2,25.6-0.5c8.3-1,14.6-0.2,23.1,0.8
		c-8.9,4.7-18.8,7.4-29.6,8.1l-10.4,0.8c-9.5-0.4-21-0.1-29.4-3.3c-8-3.1-14.5-8.2-19.4-15.3l0.2-12.4c0-0.1,0-0.1,0-0.1l0.3,0.1
		c0.1,0,0.1,0,0.2-0.1L474.7,631.7z"/>
	<path class="st123" d="M473.9,645.4c4.9,7.1,11.4,12.2,19.4,15.3c8.4,3.2,19.8,3,29.4,3.3l1.3,0.6c0.2,0.1,0.3,0.3,0.3,0.5
		l-0.2,21.5c0,0.3,0.1,0.6,0.4,0.9c0.2,0.2,0.3,0.5,0.3,0.9c-0.9,7.4-2.2,14.8-3.8,22.2l-15.3,0l-7.6-0.8l-8.6,0.1
		c-1.1-4-1.7-7.3-1.9-9.8c-1-12.1-1.6-24.4-1.9-36.7c0-1.4-1.2-2.6-2.6-2.7c-4.3-0.3-8.9-1.2-13.8-2.8l-4.8-2.9
		C466.6,651,469.7,647.8,473.9,645.4z"/>
	<path class="st113" d="M598.5,650.7l0.4,16.1l-0.4,16.9c-0.7,13.8-7.2,22.2-19.6,25.4c-0.3,0.1-0.5,0.1-0.5,0
		c7.7-5.1,11.8-12.4,12.5-21.7c0.7-9.8,0.7-21.4-0.2-34.7l2.8-0.9L598.5,650.7z"/>
	<path class="st116" d="M590.7,652.8c0.9,13.3,1,24.8,0.2,34.7c-0.7,9.3-4.9,16.5-12.5,21.7l-13,1.2c0.2-0.5,0.9-0.7,2.3-0.6
		c0.1,0,0.2-0.1,0.2-0.2c0-0.1,0-0.2-0.1-0.2c-0.5-0.3-0.6-0.7-0.5-1.3c0.7-3.2,0.2-7.6,0.6-11c0.4-3.5-0.2-7.1,0.2-10.7
		c0.6-6,0.9-11,1-16.4c0-0.9-0.7-1.6-1.6-1.7l-17.2-1.1c-6.8-0.1-12.6-1.5-17.4-4c10.8-0.7,20.7-3.4,29.6-8.1
		C571.4,655.4,580.8,654.6,590.7,652.8z"/>
	<path class="st120" d="M464.4,655l4.8,2.9c0.1,11.1,0.3,22.2,0.5,33.3c0,1.8-0.5,3.2-0.9,4.8c-0.3,1.1-1.3,1.7-2.4,1.5
		c-0.5-0.1-1-0.5-1.2-0.9l-4.2-7.3C460.7,679.3,459.3,664,464.4,655z"/>
	<path class="st118" d="M469.2,657.9c5,1.6,9.6,2.5,13.8,2.8c1.4,0.1,2.5,1.3,2.6,2.7c0.3,12.3,0.9,24.6,1.9,36.7
		c0.2,2.5,0.8,5.8,1.9,9.8l-11.8-1l-5.8-1.3c-7.5-3.7-11.1-9.8-10.8-18.3l4.2,7.3c0.5,0.9,1.7,1.3,2.7,0.7c0.5-0.3,0.8-0.7,0.9-1.3
		c0.4-1.6,1-3,0.9-4.8C469.4,680.1,469.3,669,469.2,657.9z"/>
	<path class="st124" d="M533,663.2c4.8,2.6,10.6,3.9,17.4,4c1.1,6.7,1.2,12.9,0.1,18.5c-0.5,2.7-0.8,5-0.7,6.8
		c0.1,5.9-0.4,11.9-0.8,17.8l-28.1,0.2c1.6-7.3,2.9-14.7,3.8-22.2c0-0.4-0.1-0.7-0.3-0.9c-0.3-0.2-0.4-0.5-0.4-0.9l0.2-21.5
		c0-0.2-0.1-0.4-0.3-0.5l-1.3-0.6L533,663.2z"/>
	<path class="st114" d="M550.4,667.2l17.2,1.1c0.9,0.1,1.6,0.8,1.6,1.7c-0.1,5.4-0.3,10.4-1,16.4c-0.4,3.7,0.2,7.2-0.2,10.7
		c-0.4,3.4,0.1,7.8-0.6,11c-0.1,0.6,0,1.1,0.5,1.3c0.1,0.1,0.2,0.2,0.1,0.3c0,0.1-0.1,0.1-0.2,0.1c-1.4-0.1-2.2,0.1-2.3,0.6
		l-16.4,0.1c0.4-6,0.9-11.9,0.8-17.8c0-1.8,0.2-4.1,0.7-6.8C551.6,680.1,551.5,674,550.4,667.2z"/>
	<path class="st123" d="M471.7,707.5l5.8,1.3l17.3,3.6c-6.8,13.4-25.7,15.9-26.9,33c-5-1-6.7,0.4-10.9,2.6c-0.4,0.2-0.4,0.5-0.1,0.8
		c2.7,2.5-3.3,5.7-4.9,6.4c-3.4,1.4-2.7,5.8-6.5,5.3c-0.4-0.1-0.8,0-1.1,0.3c-5.8,4.8-11.1,8.9-17.2,14.4c-4.6,4.2-9.6,8-14.9,11.3
		c-0.3,0.2-0.6,0.5-0.7,0.8c-1.9,4-5.5,3.4-7.4,7.2c-0.2,0.3-0.4,0.6-0.8,0.8c-4.4,2.7-9.2,4.4-14.4,5.1c-0.3,0-0.5-0.1-0.5-0.4
		v-1.4c0-0.3-0.2-0.5-0.5-0.5c-5.2-0.3-7,0.6-5.4,2.6l-47.2-18.3c-0.3-0.1-0.7-0.1-1,0l-11.5,5.4c-0.2,0.1-0.2,0.3-0.2,0.5
		c0,0.1,0.1,0.1,0.2,0.2c37.6,16,76.2,30.1,114.2,44.9c-6.8,2.1-13.2,5.2-19.3,9.3c-0.2,0.2-0.2,0.3,0,0.4l0.8,0.3
		c0.3,0.1,0.3,0.2,0,0.4c-5.8,3-11.2,3.3-15.4,7.2c-0.1,0.1-0.3,0.1-0.4,0l-0.3-0.2c-0.4-0.2-0.6-0.1-0.7,0.3c0,0.2,0,0.3,0,0.5
		l-88.5-34.9l-52.7-21c-0.3-0.1-0.4-0.4-0.3-0.7c0.1-0.1,0.2-0.2,0.3-0.3L471.7,707.5z"/>
	<path class="st112" d="M489.4,709.8l8.6-0.1c-0.6,1.7-1.7,2.6-3.2,2.7l-17.3-3.6L489.4,709.8z"/>
	<path class="st112" d="M578.4,709.1c0.1,0.1,0.3,0.1,0.5,0c-1.6,0.5-2.2,1-1.8,1.5l-17.6,1.9c-3.7-0.4-6.7-2.3-10.4-0.4
		c-6.8,2.7-14.1,4.2-22,4.4c-7.1-0.5-14-2.3-20.8-5.2c-0.4,0.2-0.7,0-0.7-0.6l15.3,0l28.1-0.2l16.4-0.1L578.4,709.1z"/>
	<path class="st121" d="M505.6,710.6c0,0.6,0.2,0.8,0.7,0.6c-0.4,0.2-0.8,0.3-1.3,0.3c-0.4,0-0.7,0.2-0.8,0.6
		c-1.4,4.1-4.5,8.7-5.1,12.7c-0.4,2.7-2.2,5.9-2.7,7.9c-1.4,5.3-2.9,10.5-4.4,15.8c-1.6,5.4-3,12.5-5.1,18.6
		c-8.5-4.1-15.8-8.9-18.7-18l-0.2-3.7c1.2-17.1,20.1-19.6,26.9-33c1.5-0.2,2.5-1.1,3.2-2.7L505.6,710.6z"/>
	<path class="st122" d="M577.1,710.6l100.5,40.8c-1,1.8-1.2,3.2-0.5,4.3c0.2,0.3,0.1,0.6-0.2,0.8l-3.9,2.8c-0.1,0.1-0.1,0.2-0.1,0.3
		c0,0.1,0.1,0.2,0.1,0.4c0.1,0.3-0.1,0.5-0.4,0.5c-0.8,0-1.7,0.2-2.4,0.8c-5.8,5.2-11.7,10.4-17.5,15.6c-0.3,0.2-0.5,0.3-0.9,0.3
		l-1.6-0.2c-0.4,0-0.7,0.1-0.9,0.4l-21.7,23.6c-0.2,0.2-0.2,0.4,0,0.6l0.3,0.3c0.3,0.3,0.4,0.7,0,1.1l-7.4,9.1
		c-0.3,0.3-0.6,0.4-1,0.3c-4.2-1.4-5.6,4.4-4.5,7.3l-91.8,35.7c-0.4,0.1-0.8,0.1-1.2,0l-54.6-21.3c1.7-0.1,2.7-0.2,3.1-0.5
		c5.6-4.2,12.3-7.1,17.5-10.4c2.6-1.6,5.1-3.3,7.7-4.9c0.5-0.3,0.8-0.2,1,0.3l0.4,1c0.2,0.4,0.4,0.5,0.7,0.2l4.4-3.5
		c0.3-0.2,0.2-0.3-0.1-0.3l-2.7,0.1c-0.5,0-0.6-0.1-0.1-0.4c4.1-3.1,8.6-7.6,11.5-10.1c4.3-3.7,9.1-6.9,12-12
		c0.2-0.4,0.1-0.5-0.3-0.5h-1c-0.4,0-0.5-0.2-0.4-0.6l0.9-2c0.2-0.4,0.1-0.7-0.2-1l-1.3-1.3c16,0.6,62-2,63.5-25.3
		c0.2-3.6,0.1-7.2-0.4-10.8c2.9-15.5-7.3-21.4-18-29.1c-2.9-2.1-4.9-4.6-7.2-7.2c-0.3-0.3-0.2-0.7,0-1c0.8-0.8,1.2-1.5,1.2-1.9
		L577.1,710.6z"/>
	<path class="st118" d="M559.5,712.5c0.1,0.5-0.3,1.1-1.2,1.9c-0.3,0.3-0.3,0.7,0,1c2.2,2.6,4.3,5.1,7.2,7.2
		c10.7,7.8,20.9,13.7,18,29.1l-3.6,5.4c-2.2-1.5-3.4-2.7-3.8-3.7c-1.8-4.6-4.2-8.8-7.2-12.6c-1.9-2.4-3.4-5.1-5.3-7.5
		c-1.3-1.7-2-3.7-3.7-5.8c-1.8-2.1-3.7-5.6-5.6-10.5c-0.1-0.3-0.4-0.6-0.8-0.7c-0.6-0.2-0.9-0.7-0.8-1.4c0-0.4-0.1-0.7-0.5-0.9
		l-3.1-2C552.9,710.2,555.8,712,559.5,712.5z"/>
	<path class="st124" d="M506.3,711.2c6.8,2.9,13.7,4.7,20.8,5.2c-0.9,7.2-0.4,15.3-0.8,21.5c-0.5,8.9-0.2,18.1-1.2,27
		c-0.3,3-0.7,6-1,9c-12.8,0.1-25.2-2.2-37.3-6.8c2.2-6.2,3.5-13.3,5.1-18.6c1.5-5.2,3-10.5,4.4-15.8c0.5-2,2.3-5.1,2.7-7.9
		c0.6-4.1,3.7-8.6,5.1-12.7c0.1-0.3,0.4-0.6,0.8-0.6C505.5,711.5,505.9,711.4,506.3,711.2z"/>
	<path class="st116" d="M549.1,712.1l3.1,2c0.3,0.2,0.5,0.5,0.5,0.9c0,0.7,0.2,1.2,0.8,1.4c0.3,0.1,0.6,0.4,0.8,0.7
		c1.9,4.9,3.8,8.4,5.6,10.5c1.8,2,2.4,4.1,3.7,5.8c1.9,2.4,3.4,5.1,5.3,7.5c3.1,3.8,5.5,8,7.2,12.6c0.4,1,1.6,2.2,3.8,3.7
		c-12.3,13.8-38.3,17.4-55.9,16.7c0.3-3,0.6-6,1-9c1-8.8,0.7-18,1.2-27c0.4-6.2-0.2-14.3,0.8-21.5
		C535,716.2,542.3,714.8,549.1,712.1z"/>
	<path class="st124" d="M467.9,745.4l0.2,3.7c-0.3,10.2-2.2,19.4,7.5,26.3c13.2,9.3,30.6,12,44.8,12.4l1.3,1.3
		c0.3,0.3,0.4,0.6,0.2,1l-0.9,2c-0.2,0.4,0,0.6,0.4,0.6h1c0.4,0,0.5,0.2,0.3,0.5c-2.8,5.2-7.6,8.3-12,12c-2.9,2.5-7.3,7-11.5,10.1
		c-0.4,0.3-0.4,0.5,0.1,0.4l2.7-0.1c0.4,0,0.4,0.1,0.1,0.3l-4.4,3.5c-0.3,0.3-0.6,0.2-0.7-0.2l-0.4-1c-0.2-0.5-0.5-0.6-1-0.3
		c-2.5,1.7-5.1,3.3-7.7,4.9c-5.3,3.3-11.9,6.3-17.5,10.4c-0.4,0.3-1.4,0.5-3.1,0.5l-84.8-33.2c-1.6-2,0.2-2.9,5.4-2.6
		c0.3,0,0.5,0.2,0.5,0.5v1.4c0,0.3,0.2,0.5,0.5,0.4c5.2-0.7,10-2.4,14.4-5.1c0.3-0.2,0.6-0.5,0.8-0.8c1.9-3.7,5.5-3.1,7.4-7.2
		c0.2-0.3,0.4-0.6,0.7-0.8c5.3-3.4,10.3-7.1,14.9-11.3c6.1-5.5,11.4-9.6,17.2-14.4c0.3-0.3,0.7-0.4,1.1-0.3c3.8,0.6,3.1-3.8,6.5-5.3
		c1.6-0.7,7.6-3.9,4.9-6.4c-0.3-0.3-0.3-0.6,0.1-0.8C461.2,745.9,462.9,744.4,467.9,745.4z"/>
	<path class="st112" d="M468.1,749.1c2.8,9,10.2,13.8,18.7,18c12.1,4.6,24.5,6.8,37.3,6.8c17.6,0.7,43.6-2.9,55.9-16.7l3.6-5.4
		c0.5,3.6,0.6,7.2,0.4,10.8c-1.4,23.2-47.5,25.9-63.5,25.3c-14.2-0.4-31.6-3.1-44.8-12.4C466,768.5,467.8,759.3,468.1,749.1z"/>
	<path class="st120" d="M677.7,751.4l50.3,20.4c-2.3,3.3-6.1,5.7-11.4,7.3c-0.1,0-0.2,0-0.2-0.1c0-0.1,0-0.2,0-0.3
		c0-0.2-0.1-0.3-0.3-0.3c-0.1,0-0.1,0-0.2,0.1c-1.1,0.7-1.7,2-1.9,3.8c-0.7-0.3-1.2-0.5-1.6-0.3c-32.4,12.6-64.8,25.2-97.4,37.6
		c-1.1-2.9,0.3-8.7,4.5-7.3c0.4,0.1,0.7,0,1-0.3l7.4-9.1c0.3-0.4,0.3-0.7,0-1.1l-0.3-0.3c-0.2-0.2-0.2-0.4,0-0.6l21.7-23.6
		c0.3-0.3,0.6-0.4,0.9-0.4l1.6,0.2c0.3,0,0.6-0.1,0.9-0.3c5.9-5.2,11.7-10.4,17.5-15.6c0.6-0.6,1.6-0.7,2.4-0.8
		c0.3,0,0.4-0.2,0.4-0.5c0-0.1-0.1-0.3-0.1-0.4c-0.1-0.1,0-0.2,0.1-0.3l3.9-2.8c0.3-0.2,0.4-0.5,0.2-0.8
		C676.5,754.6,676.7,753.2,677.7,751.4z"/>
	<path class="st130" d="M727.9,771.8l55,22.3c0.2,0.1,0.3,0.3,0.2,0.5c0,0.1-0.1,0.2-0.2,0.2l-57.6,23.2l-124,49.8
		c0-4,1.4-7.4,4.2-10.2c0.4-0.4,0.7-0.3,1,0.1l0.6,0.9c0.1,0.2,0.3,0.2,0.5,0l11.6-13.1c0.2-0.2,0.4-0.4,0.7-0.4
		c2.5-0.6,4.5-2,5.9-4.1c0.1-0.2,0.1-0.3-0.1-0.4l-0.7-0.3c-0.6-0.3-0.6-0.6-0.2-1.1l3.5-3.8c0,0,0-0.1,0-0.2c0,0,0,0,0,0
		c-0.3-0.1-0.5-0.1-0.6,0.1c-0.3,0.4-0.6,0.6-1.1,0.4l-1.1-0.3c-0.5-0.1-0.6-0.4-0.3-0.8c2.3-3.8,2.2-6.4-0.1-7.7l99-38.5
		c0.4-0.1,0.5-0.5,0.4-0.9c-0.1-0.2-0.2-0.3-0.3-0.4l-10.2-5.3c0.2-1.8,0.9-3.1,1.9-3.8c0.1-0.1,0.3-0.1,0.4,0.1
		c0,0.1,0.1,0.1,0.1,0.2c0,0.1,0,0.2,0,0.3c0,0.1,0.1,0.2,0.2,0.1C721.8,777.5,725.6,775.1,727.9,771.8z"/>
	<path class="st115" d="M713.9,782.1l10.2,5.3c0.3,0.2,0.5,0.6,0.3,0.9c-0.1,0.1-0.2,0.3-0.4,0.3l-99,38.5l-101.2,39
		c-0.9,0.4-1.9,0.4-2.8,0l-17.8-7l-66.1-25.8c-38-14.8-76.6-28.9-114.2-44.9c-0.2-0.1-0.3-0.3-0.2-0.4c0-0.1,0.1-0.1,0.2-0.2
		l11.5-5.4c0.3-0.2,0.7-0.2,1,0l47.2,18.3l84.8,33.2l54.6,21.3c0.4,0.1,0.8,0.1,1.2,0l91.8-35.7c32.5-12.5,65-25,97.4-37.6
		C712.7,781.7,713.2,781.8,713.9,782.1z"/>
	<path class="st115" d="M313.4,816.7l88.5,34.9l65.7,25.9l54.3,21.7c0.6,0.2,1.2,0.2,1.8,0l77.7-31.3l124-49.8
		c0.7,1.1,1.2,1.7,1.5,1.8c18.9,8.5,38,16.4,57.5,23.9c0.2,0.1,0.3,0.3,0.2,0.5c0,0.1-0.1,0.2-0.2,0.2L523.7,948.3
		c-0.8,0.3-1.6,0.3-2.4,0c-83.9-33.4-168-66.8-252.3-100.2c-2.7-1.1-5.2-2.3-7.4-3.6c-0.3-0.2-0.4-0.6-0.2-0.9
		c0.1-0.1,0.2-0.2,0.3-0.3c12.3-5.2,24.1-10.1,35.6-14.8c1.9-0.8,4.1-2,6.6-3.7c2.7-1.8,5.8-3.4,9.1-4.9c0.5-0.2,0.7-0.8,0.5-1.3
		c0-0.1-0.1-0.2-0.2-0.3C312.9,817.9,312.9,817.3,313.4,816.7z"/>
	<path class="st114" d="M625.1,827.2c2.4,1.3,2.4,3.9,0.1,7.7c-0.3,0.4-0.1,0.7,0.3,0.8l1.1,0.3c0.5,0.1,0.8,0,1.1-0.4
		c0.1-0.2,0.3-0.3,0.6-0.1c0.1,0,0.1,0.1,0.1,0.2c0,0,0,0,0,0l-3.5,3.8c-0.4,0.5-0.4,0.8,0.2,1.1l0.7,0.3c0.2,0.1,0.2,0.2,0.1,0.4
		c-1.4,2.1-3.4,3.5-5.9,4.1c-0.3,0.1-0.5,0.2-0.7,0.4l-11.6,13.1c-0.2,0.2-0.3,0.2-0.5,0l-0.6-0.9c-0.3-0.5-0.6-0.5-1-0.1
		c-2.8,2.8-4.2,6.2-4.2,10.2l-77.7,31.3c-0.6,0.2-1.2,0.2-1.8,0l-54.3-21.7c2.8-3.4,6.3-5.6,10.5-6.8c0.1,0,0.2-0.1,0.2-0.2
		s-0.1-0.2-0.2-0.2h-4.3c-0.3,0-0.3-0.1-0.1-0.2c2.6-1.6,7.4-0.2,11.2-2.1c2.8-1.4,5.6-2.8,8.5-4.1c1.4-0.6,3.3-0.5,4.8-1.3
		c0.3-0.2,0.6-0.2,0.9-0.2c1.4,0,2.8-1.1,4.3-3.3l17.8,7c0.9,0.4,1.9,0.4,2.8,0L625.1,827.2z"/>
	<path class="st118" d="M437.2,833.4l66.1,25.8c-1.5,2.2-2.9,3.3-4.3,3.3c-0.3,0-0.6,0.1-0.9,0.2c-1.5,0.8-3.4,0.6-4.8,1.3
		c-2.9,1.3-5.7,2.6-8.5,4.1c-3.7,1.9-8.6,0.5-11.2,2.1c-0.3,0.2-0.2,0.2,0.1,0.2h4.3c0.1,0,0.2,0.1,0.2,0.2s-0.1,0.2-0.2,0.2
		c-4.2,1.1-7.7,3.4-10.5,6.8l-65.7-25.9c0-0.2,0-0.3,0-0.5c0.1-0.5,0.3-0.6,0.7-0.3l0.3,0.2c0.2,0.1,0.3,0.1,0.4,0
		c4.2-3.9,9.6-4.2,15.4-7.2c0.3-0.1,0.3-0.3,0-0.4l-0.8-0.3c-0.3-0.1-0.3-0.2,0-0.4C423.9,838.5,430.4,835.5,437.2,833.4z"/>
</g>
</svg>
